<?xml version="1.0" encoding="utf-8"?>
<!-- Generator: Adobe Illustrator 16.0.0, SVG Export Plug-In . SVG Version: 6.00 Build 0)  -->
<!DOCTYPE svg PUBLIC "-//W3C//DTD SVG 1.1//EN" "http://www.w3.org/Graphics/SVG/1.1/DTD/svg11.dtd">
<svg version="1.1" id="Vrstva_1" xmlns="http://www.w3.org/2000/svg" xmlns:xlink="http://www.w3.org/1999/xlink" x="0px" y="0px"
	 width="25.438px" height="10.643px" viewBox="0 0 25.438 10.643" enable-background="new 0 0 25.438 10.643" xml:space="preserve">
<g>
	<path fill="#00497B" d="M4.97,1.076c-1.139,0-2.036,0.379-2.694,1.137C1.618,2.971,1.289,4.008,1.289,5.324
		c0,1.354,0.317,2.401,0.952,3.141c0.635,0.738,1.54,1.107,2.715,1.107c0.724,0,1.546-0.13,2.472-0.389v1.055
		c-0.718,0.269-1.604,0.403-2.655,0.403c-1.525,0-2.701-0.463-3.53-1.389C0.414,8.328-0.001,7.014-0.001,5.31
		c0-1.067,0.2-2.002,0.6-2.805c0.398-0.803,0.975-1.421,1.728-1.854C3.079,0.217,3.966,0,4.984,0C6.07,0,7.019,0.198,7.831,0.595
		l-0.51,1.033C6.537,1.261,5.753,1.076,4.97,1.076z"/>
	<path fill="#00497B" d="M15.957,10.5H8.843v-0.94l5.494-8.326H9.012V0.149h6.791v0.941L10.308,9.41h5.649V10.5z"/>
	<path fill="#00497B" d="M25.438,10.5h-1.416l-3.773-5.02l-1.082,0.963V10.5h-1.203V0.148h1.203v5.134l4.693-5.134h1.424
		l-4.164,4.496L25.438,10.5z"/>
</g>
</svg>
