<?xml version="1.0" encoding="utf-8"?>
<!-- Generator: Adobe Illustrator 16.0.0, SVG Export Plug-In . SVG Version: 6.00 Build 0)  -->
<!DOCTYPE svg PUBLIC "-//W3C//DTD SVG 1.1//EN" "http://www.w3.org/Graphics/SVG/1.1/DTD/svg11.dtd">
<svg version="1.1" id="Vrstva_1" xmlns="http://www.w3.org/2000/svg" xmlns:xlink="http://www.w3.org/1999/xlink" x="0px" y="0px"
	 width="13.732px" height="10.993px" viewBox="0 0 13.732 10.993" enable-background="new 0 0 13.732 10.993" xml:space="preserve">
<g>
	<path fill="#00497B" d="M7.306,10.855H5.923L2.234,5.952L1.176,6.891v3.964H0V0.741h1.176v5.016l4.587-5.016h1.392L3.086,5.133
		L7.306,10.855z"/>
	<path fill="#00497B" d="M11.553,10.993c-1.098,0-1.947-0.338-2.549-1.014S8.101,8.347,8.101,7.112c0-1.27,0.307-2.249,0.917-2.939
		C9.63,3.48,10.5,3.133,11.63,3.133c0.364,0,0.729,0.039,1.093,0.119c0.364,0.078,0.65,0.17,0.858,0.275l-0.354,0.977
		c-0.253-0.103-0.529-0.187-0.83-0.254c-0.3-0.065-0.564-0.1-0.795-0.1c-1.541,0-2.311,0.982-2.311,2.947
		c0,0.932,0.188,1.646,0.563,2.145c0.376,0.5,0.934,0.748,1.671,0.748c0.633,0,1.28-0.138,1.944-0.408v1.017
		C12.963,10.861,12.325,10.993,11.553,10.993z M9.071,0h0.795c0.525,0.34,1.03,0.776,1.515,1.308C11.98,0.708,12.49,0.273,12.91,0
		h0.822v0.172l-0.457,0.472c-0.663,0.683-1.102,1.226-1.313,1.626h-1.148c-0.105-0.189-0.275-0.43-0.512-0.721
		c-0.235-0.291-0.646-0.75-1.23-1.377V0z"/>
</g>
</svg>
