<?xml version="1.0" encoding="utf-8"?>
<!-- Generator: Adobe Illustrator 16.0.0, SVG Export Plug-In . SVG Version: 6.00 Build 0)  -->
<!DOCTYPE svg PUBLIC "-//W3C//DTD SVG 1.1//EN" "http://www.w3.org/Graphics/SVG/1.1/DTD/svg11.dtd">
<svg version="1.1" id="Vrstva_1" xmlns="http://www.w3.org/2000/svg" xmlns:xlink="http://www.w3.org/1999/xlink" x="0px" y="0px"
	 width="32.843px" height="30.106px" viewBox="-552.175 233.05 32.843 30.106"
	 enable-background="new -552.175 233.05 32.843 30.106" xml:space="preserve">
<title>Page 1</title>
<desc>Created with Sketch.</desc>
<g id="CSAS">
	<g id="_x31_-2-4-CSAS-detail-poboÄky" transform="translate(-397.000000, -1050.000000)">
		<g id="Page-1" transform="translate(397.000000, 1050.000000)">
			<path id="Fill-1" fill="#40A3D5" d="M-539.458,250.873c0.676,0,1.224-0.516,1.224-1.15c0-0.639-0.548-1.152-1.224-1.152
				c-0.676,0-1.225,0.515-1.225,1.152C-540.682,250.358-540.133,250.873-539.458,250.873"/>
			<path id="Fill-3" fill="#40A3D5" d="M-530.469,249.722c0-0.639-0.548-1.152-1.225-1.152c-0.676,0-1.224,0.515-1.224,1.152
				c0,0.636,0.548,1.15,1.224,1.15C-531.017,250.872-530.469,250.358-530.469,249.722"/>
			<path id="Fill-5" fill="#40A3D5" d="M-519.635,257.404c-1.925-1.68-1.951-2.65-1.988-3.994c-0.005-0.171-0.01-0.345-0.018-0.521
				c-0.063-1.339,0.025-1.752,0.355-3.295c0.064-0.308,0.139-0.654,0.223-1.058c0.005-0.022,0.009-0.047,0.012-0.069
				c0.24-1.898,0.119-3.813-0.209-5.4c-0.016-0.07-0.038-0.133-0.064-0.188c-2.389-10.009-13.088-9.809-13.191-9.81
				c-0.025,0-0.051,0.006-0.076,0.009c-0.061-0.015-0.123-0.022-0.188-0.025c-0.344-0.008-8.417-0.104-12.929,4.92
				c-2.368,2.638-3.292,6.169-2.746,10.494c0.003,0.022,0.007,0.047,0.011,0.069c0.083,0.402,0.158,0.75,0.224,1.058
				c0.33,1.542,0.418,1.956,0.355,3.295c-0.009,0.178-0.013,0.352-0.018,0.521c-0.037,1.344-0.063,2.314-1.988,3.994
				c-0.332,0.29-0.402,0.778-0.164,1.15c0.468,0.73,1.605,1.677,3.299,1.677c0.855,0,1.854-0.242,2.979-0.874
				c0.428-0.24,0.581-0.782,0.341-1.21c-0.24-0.43-0.782-0.58-1.209-0.342c-1.714,0.963-2.799,0.663-3.383,0.286
				c1.825-1.86,1.864-3.268,1.901-4.635c0.005-0.159,0.008-0.321,0.017-0.485c0.073-1.568-0.054-2.162-0.393-3.75
				c-0.063-0.296-0.134-0.628-0.214-1.013c-0.47-3.771,0.305-6.813,2.303-9.042c3.962-4.419,11.501-4.334,11.576-4.336
				c0.043,0.002,0.084-0.003,0.123-0.007c0.07,0.016,0.144,0.026,0.22,0.022c0.387-0.004,9.612-0.097,11.524,8.807
				c0.262,1.353,0.34,2.928,0.14,4.557c-0.08,0.385-0.151,0.717-0.216,1.013c-0.338,1.588-0.465,2.182-0.393,3.749
				c0.008,0.166,0.014,0.327,0.018,0.486c0.037,1.367,0.074,2.775,1.904,4.639c-0.578,0.377-1.662,0.679-3.387-0.29
				c-0.428-0.238-0.969-0.088-1.209,0.342c-0.24,0.428-0.088,0.97,0.34,1.21c1.127,0.632,2.124,0.874,2.98,0.874
				c1.692,0,2.83-0.945,3.299-1.677C-519.235,258.182-519.303,257.694-519.635,257.404"/>
			<path id="Fill-8" fill="#40A3D5" d="M-524.354,250.655c0.006-0.179,0.024-1.771-0.825-2.709
				c-0.005-0.005-0.011-0.008-0.015-0.014c-0.104-2.033-0.498-3.551-0.523-3.646c-0.09-0.339-0.366-0.578-0.689-0.641
				c-0.055-0.031-0.113-0.058-0.176-0.076c-0.15-0.045-3.721-1.14-5.886-3.37c-0.584-0.601-1.088-1.119-1.785-0.979
				c-0.653,0.134-0.872,0.698-1.131,1.367c-2.476,6.385-8.684,5.16-8.946,5.104c-0.479-0.101-0.95,0.204-1.054,0.684
				c-0.104,0.48,0.202,0.953,0.682,1.058c0.022,0.006,0.712,0.145,1.752,0.145c2.489,0,6.984-0.804,9.159-6.188
				c0.016,0.017,0.033,0.032,0.049,0.049c2.192,2.258,5.457,3.446,6.412,3.76c0.203,0.971,0.606,3.375,0.237,5.806
				c-0.007,0.039-0.255,1.496-0.919,3.307c-1.117,1.067-2.891,1.945-5.705,1.945h-0.002c-0.396-0.505-1.121-0.846-1.958-0.846
				c-1.259,0-2.279,0.765-2.279,1.712c0,0.944,1.021,1.711,2.279,1.711c0.813,0,1.521-0.321,1.925-0.803
				c0.012,0,0.023,0.004,0.035,0.004c1.738,0,3.15-0.297,4.307-0.768c-1.324,2.188-3.328,4.11-6.285,4.11
				c-0.033,0-0.064,0.006-0.097,0.01c-0.033-0.004-0.063-0.01-0.097-0.01c-6.805,0-8.165-10.237-8.177-10.341
				c-0.061-0.487-0.501-0.833-0.991-0.771c-0.486,0.061-0.833,0.504-0.772,0.99c0.06,0.485,1.566,11.9,9.941,11.9
				c0.034,0,0.064-0.007,0.097-0.01c0.033,0.003,0.064,0.01,0.097,0.01c5.256,0,7.965-4.513,9.275-7.979
				C-524.599,253.132-524.36,250.725-524.354,250.655"/>
		</g>
	</g>
</g>
</svg>
