<?xml version="1.0" encoding="utf-8"?>
<!-- Generator: Adobe Illustrator 16.0.0, SVG Export Plug-In . SVG Version: 6.00 Build 0)  -->
<!DOCTYPE svg PUBLIC "-//W3C//DTD SVG 1.1//EN" "http://www.w3.org/Graphics/SVG/1.1/DTD/svg11.dtd">
<svg version="1.1" id="Capa_1" xmlns="http://www.w3.org/2000/svg" xmlns:xlink="http://www.w3.org/1999/xlink" x="0px" y="0px"
	 width="18.25px" height="18.25px" viewBox="271.209 270.917 18.25 18.25" enable-background="new 271.209 270.917 18.25 18.25"
	 xml:space="preserve">
<g>
	<g>
		<g id="gps-fixed_9_">
			<path fill="#40A3D5" d="M280.334,276.723c-1.825,0-3.318,1.493-3.318,3.319c0,1.825,1.493,3.317,3.318,3.317
				s3.318-1.492,3.318-3.317C283.652,278.216,282.159,276.723,280.334,276.723z M287.717,279.212
				c-0.415-3.484-3.152-6.222-6.553-6.553v-1.742h-1.66v1.742c-3.483,0.332-6.221,3.069-6.553,6.553h-1.742v1.66h1.742
				c0.415,3.484,3.152,6.22,6.553,6.553v1.741h1.66v-1.741c3.483-0.415,6.221-3.152,6.553-6.553h1.742v-1.66H287.717z
				 M280.334,285.849c-3.234,0-5.808-2.571-5.808-5.807c0-3.236,2.573-5.808,5.808-5.808s5.808,2.572,5.808,5.808
				C286.142,283.277,283.568,285.849,280.334,285.849z"/>
		</g>
	</g>
</g>
</svg>
