<?xml version="1.0" encoding="utf-8"?>
<!-- Generator: Adobe Illustrator 16.0.0, SVG Export Plug-In . SVG Version: 6.00 Build 0)  -->
<!DOCTYPE svg PUBLIC "-//W3C//DTD SVG 1.1//EN" "http://www.w3.org/Graphics/SVG/1.1/DTD/svg11.dtd">
<svg version="1.1" id="Vrstva_1" xmlns="http://www.w3.org/2000/svg" xmlns:xlink="http://www.w3.org/1999/xlink" x="0px" y="0px"
	 width="25px" height="25px" viewBox="-3.625 4 25 25" enable-background="new -3.625 4 25 25" xml:space="preserve">
<title>Group 8</title>
<desc>Created with Sketch.</desc>
<circle fill="#9DD455" cx="8.875" cy="16.5" r="12.5"/>
<path fill="#FFFFFF" d="M15.211,13.953l-5.656,5.656l-1.063,1.063c-0.141,0.141-0.336,0.219-0.531,0.219
	c-0.195,0-0.391-0.078-0.531-0.219l-1.063-1.063l-2.828-2.828C3.398,16.641,3.32,16.445,3.32,16.25s0.078-0.391,0.219-0.531
	l1.063-1.063c0.141-0.141,0.336-0.219,0.531-0.219c0.195,0,0.391,0.078,0.531,0.219l2.297,2.305l5.125-5.133
	c0.141-0.141,0.336-0.219,0.531-0.219s0.391,0.078,0.531,0.219l1.063,1.063c0.141,0.141,0.219,0.335,0.219,0.531
	C15.43,13.618,15.352,13.813,15.211,13.953z"/>
</svg>
