<svg width="13" height="25" viewBox="0 0 13 25" xmlns="http://www.w3.org/2000/svg"><title>Fill 1</title><path d="M11.253 12.63a.5.5 0 0 1-.504.498l-8.505-.003a.507.507 0 0 1-.507-.499l-.002-7.503a.501.501 0 0 1 .505-.495l8.506.005a.5.5 0 0 1 .506.495l.001 7.503zm-2.522 2.612c0-.228.175-.415.389-.413h1.525c.214-.001.39.186.388.415v.87a.4.4 0 0 1-.387.414H9.12a.402.402 0 0 1-.386-.416l-.003-.87zm1.916 4.198l-1.528-.002c-.213.003-.386-.185-.386-.413l-.001-.873c0-.226.176-.413.386-.409l1.528-.002c.214-.002.386.185.387.416l.003.868c-.003.229-.175.415-.389.415zm.389 2.497c0 .23-.174.416-.388.417l-1.527-.004a.399.399 0 0 1-.386-.412v-.87c-.001-.227.173-.414.388-.414h1.525c.212.002.39.187.387.415v.868zm-3.433-5.826c.002.232-.172.416-.388.414H5.691a.404.404 0 0 1-.39-.414v-.869c0-.231.172-.418.387-.416h1.528c.216 0 .388.188.389.415l-.002.87zM7.22 19.44l-1.527-.001a.401.401 0 0 1-.387-.415v-.87c0-.232.17-.415.386-.415h1.527c.214.001.387.186.387.414l.002.871c0 .23-.175.415-.388.416zm0 2.91l-1.526.001c-.217-.002-.385-.186-.387-.416l-.003-.87c.001-.229.174-.413.39-.412l1.527.002c.214-.002.386.184.386.412l.002.871c0 .23-.174.413-.39.412zm-5.346-7.113c0-.229.173-.414.389-.412l1.524.002c.213-.002.39.182.388.412v.871a.401.401 0 0 1-.386.414H2.262c-.215 0-.388-.184-.387-.418l-.002-.869zm2.304 3.786c-.001.228-.175.413-.388.414H2.262c-.212-.002-.387-.188-.388-.416l.001-.87c-.002-.23.174-.414.386-.413l1.527.002c.213 0 .389.184.39.411l-.001.872zm.002 2.912c0 .23-.174.415-.39.414l-1.525-.001c-.216.001-.388-.182-.387-.413v-.87c0-.23.172-.413.385-.415h1.53c.212 0 .385.189.387.417v.868zM10.883 2.53h-.369l-.001-.757a1.269 1.269 0 1 0-2.539-.003l.002.758-5.937-.003c-1.102 0-2 .897-2 2l.007 17.96c.003 1.102.9 2 2.003 2.003l8.945.004c1.102 0 1.902-.9 1.9-2.002l-.007-17.96a2.006 2.006 0 0 0-2.004-2z" fill="#FFF" fill-rule="evenodd"/></svg>