<?xml version="1.0" encoding="utf-8"?>
<!-- Generator: Adobe Illustrator 16.0.0, SVG Export Plug-In . SVG Version: 6.00 Build 0)  -->
<!DOCTYPE svg PUBLIC "-//W3C//DTD SVG 1.1//EN" "http://www.w3.org/Graphics/SVG/1.1/DTD/svg11.dtd">
<svg version="1.1" id="Vrstva_1" xmlns="http://www.w3.org/2000/svg" xmlns:xlink="http://www.w3.org/1999/xlink" x="0px" y="0px"
	 width="25px" height="25px" viewBox="144.43 -51.57 25 25" enable-background="new 144.43 -51.57 25 25" xml:space="preserve">
<circle fill="#E60000" cx="156.93" cy="-39.07" r="12.5"/>
<path fill="#FFFFFF" d="M162.245-35.032l-1.277,1.277c-0.17,0.169-0.403,0.263-0.639,0.263c-0.234,0-0.471-0.094-0.639-0.263
	l-2.761-2.761l-2.761,2.761c-0.17,0.169-0.404,0.263-0.639,0.263s-0.47-0.094-0.639-0.263l-1.277-1.277
	c-0.17-0.17-0.263-0.404-0.263-0.639s0.093-0.469,0.263-0.639l2.761-2.761l-2.761-2.761c-0.17-0.17-0.263-0.404-0.263-0.639
	c0-0.234,0.093-0.47,0.263-0.638l1.277-1.278c0.169-0.17,0.404-0.264,0.639-0.264s0.47,0.094,0.639,0.264l2.761,2.761l2.761-2.761
	c0.169-0.17,0.404-0.264,0.639-0.264c0.235,0,0.47,0.094,0.639,0.264l1.277,1.278c0.169,0.169,0.263,0.403,0.263,0.638
	c0,0.235-0.094,0.47-0.263,0.639l-2.761,2.761l2.761,2.761c0.169,0.169,0.263,0.404,0.263,0.639S162.414-35.201,162.245-35.032z"/>
</svg>
