<svg xmlns="http://www.w3.org/2000/svg" width="17" height="22.95" viewBox="0 0 17 22.95"><path fill-rule="evenodd" clip-rule="evenodd" fill="#0D67A8" d="M2.392.815c.323-.187.64-.395.98-.551a2.925 2.925 0 0 1 3.562.917c.289.39.437.831.558 1.297.158.612.627 2.388.683 2.633a2.925 2.925 0 0 1-1.391 3.175c-.23.134-.465.256-.714.296a1.822 1.822 0 0 0-1.218 2.367 20.259 20.259 0 0 0 2.375 4.136l.033.032a1.822 1.822 0 0 0 2.66.129c.159-.195.383-.338.611-.471a2.926 2.926 0 0 1 3.445.384c.185.17 1.489 1.464 1.939 1.908.344.337.651.686.845 1.131a2.926 2.926 0 0 1-.987 3.544c-.305.216-.644.387-.967.573-1.56.9-3.42.811-4.854-.073a19.936 19.936 0 0 1-7.264-7.297A19.945 19.945 0 0 1 0 4.8C.012 3.201 1.023 1.605 2.392.815"/></svg>