<?xml version="1.0" encoding="utf-8"?>
<!-- Generator: Adobe Illustrator 16.0.0, SVG Export Plug-In . SVG Version: 6.00 Build 0)  -->
<!DOCTYPE svg PUBLIC "-//W3C//DTD SVG 1.1//EN" "http://www.w3.org/Graphics/SVG/1.1/DTD/svg11.dtd">
<svg version="1.1" id="Vrstva_1" xmlns="http://www.w3.org/2000/svg" xmlns:xlink="http://www.w3.org/1999/xlink" x="0px" y="0px"
	 width="16.706px" height="16.707px" viewBox="-3.19 32.154 16.706 16.707" enable-background="new -3.19 32.154 16.706 16.707"
	 xml:space="preserve">
<path fill="#0078B4" d="M12.23,48.861c-0.342,0-0.672-0.141-0.903-0.381l-3.443-3.434c-1.174,0.813-2.58,1.244-4.006,1.244
	c-3.906,0-7.068-3.162-7.068-7.068c0-3.904,3.163-7.068,7.068-7.068c3.906,0,7.067,3.164,7.067,7.068
	c0,1.426-0.432,2.832-1.244,4.006l3.443,3.445c0.23,0.229,0.371,0.561,0.371,0.902C13.516,48.279,12.934,48.861,12.23,48.861z
	 M3.877,34.725c-2.48,0-4.498,2.021-4.498,4.498c0,2.48,2.018,4.498,4.498,4.498s4.498-2.018,4.498-4.498
	C8.375,36.744,6.358,34.725,3.877,34.725z"/>
</svg>
