<?xml version="1.0" encoding="utf-8"?>
<!-- Generator: Adobe Illustrator 16.0.0, SVG Export Plug-In . SVG Version: 6.00 Build 0)  -->
<!DOCTYPE svg PUBLIC "-//W3C//DTD SVG 1.1//EN" "http://www.w3.org/Graphics/SVG/1.1/DTD/svg11.dtd">
<svg version="1.1" id="Vrstva_1" xmlns="http://www.w3.org/2000/svg" xmlns:xlink="http://www.w3.org/1999/xlink" x="0px" y="0px"
	 width="13.051px" height="12.422px" viewBox="0 0 13.051 12.422" enable-background="new 0 0 13.051 12.422" xml:space="preserve">
<g>
	<path fill="#00497B" d="M13.051,6.525c0,0.286-0.117,0.564-0.311,0.765l-0.629,0.627c-0.202,0.192-0.478,0.312-0.763,0.312
		s-0.563-0.117-0.754-0.312L8.132,5.454v5.898c0,0.586-0.486,1.07-1.072,1.07H5.988c-0.586,0-1.072-0.484-1.072-1.07V5.454
		L2.453,7.917C2.26,8.109,1.984,8.229,1.699,8.229S1.139,8.111,0.938,7.917L0.318,7.29C0.117,7.089,0,6.811,0,6.525
		C0,6.24,0.117,5.962,0.318,5.771L5.771,0.31C5.965,0.118,6.24,0,6.525,0S7.087,0.115,7.289,0.31l5.452,5.461
		C12.934,5.964,13.051,6.24,13.051,6.525z"/>
</g>
</svg>
