<?xml version="1.0" encoding="utf-8"?>
<!-- Generator: Adobe Illustrator 16.0.0, SVG Export Plug-In . SVG Version: 6.00 Build 0)  -->
<!DOCTYPE svg PUBLIC "-//W3C//DTD SVG 1.1//EN" "http://www.w3.org/Graphics/SVG/1.1/DTD/svg11.dtd">
<svg version="1.1" id="Vrstva_1" xmlns="http://www.w3.org/2000/svg" xmlns:xlink="http://www.w3.org/1999/xlink" x="0px" y="0px"
	 width="15.484px" height="11.87px" viewBox="-10.25 15.581 15.484 11.87" enable-background="new -10.25 15.581 15.484 11.87"
	 xml:space="preserve">
<path fill="#8BCA30" d="M4.956,17.22l-1.36-1.359c-0.185-0.186-0.414-0.279-0.679-0.279c-0.266,0-0.494,0.094-0.678,0.28
	l-6.553,6.563l-2.938-2.947c-0.186-0.188-0.412-0.279-0.678-0.279s-0.495,0.092-0.679,0.279l-1.36,1.358
	c-0.186,0.188-0.28,0.415-0.28,0.68c0,0.268,0.094,0.494,0.28,0.68l3.616,3.616l1.36,1.358c0.186,0.188,0.414,0.281,0.68,0.281
	c0.266,0,0.492-0.094,0.678-0.281l1.359-1.358l7.232-7.233c0.186-0.186,0.28-0.412,0.28-0.679C5.234,17.632,5.14,17.406,4.956,17.22
	L4.956,17.22L4.956,17.22z"/>
</svg>
