<svg xmlns="http://www.w3.org/2000/svg" width="22" height="15.329" viewBox="0 0 22 15.329"><path fill="#0D67A8" d="M17.598 2.531c-.014-.007-.025-.022-.041-.036a3.985 3.985 0 0 0-2.9-1.041l-.034-.075c.007-.006.015-.006.021-.006 1.008-.221 1.605-.447 1.783-.693.063-.199-.013-.309-.232-.336a6.106 6.106 0 0 0-1.393.321c.526-.321.731-.549.615-.665-.521.014-1.084.269-1.674.77.219-.358.303-.55.247-.584a4.749 4.749 0 0 0-.74.597c-.445.473-.803.912-1.077 1.311l-.014.033c-.705 1.09-1.2 2.188-1.495 3.306l-.109.083-.02.02a5.506 5.506 0 0 0-1.543-1.275 18.18 18.18 0 0 0-2.538-1.284 22.255 22.255 0 0 0-3.23-1.29c-.007 1.161.589 2.085 1.777 2.757v.021a3.92 3.92 0 0 0-1.215.172c.075 1.076.878 1.817 2.4 2.228l-.006.021c-.598-.034-1.091.165-1.475.575.501.933 1.385 1.379 2.667 1.345-.254.124-.451.259-.582.411a.823.823 0 0 0-.233.823c.274.474.768.692 1.494.658l.042.049-.021.021C6.817 12 5.301 12.557 3.525 12.441l-.027.015c-1.084-.008-2.242-.502-3.498-1.491 1.262 1.729 2.936 2.977 5.007 3.76 2.373.747 4.746.802 7.111.164h.041c2.298-.631 4.245-1.928 5.85-3.889.74-1.028 1.207-2.008 1.394-2.95 1.199.042 2.063-.287 2.599-.986l-.013-.021c-.398.137-1.18.097-2.34-.129v-.125c0-.005 0-.005.008 0 1.27-.136 2.017-.527 2.257-1.173a3.71 3.71 0 0 1-2.621.028c-.158-1.137-.721-2.174-1.695-3.113"/></svg>