<?xml version="1.0" encoding="utf-8"?>
<!-- Generator: Adobe Illustrator 16.0.0, SVG Export Plug-In . SVG Version: 6.00 Build 0)  -->
<!DOCTYPE svg PUBLIC "-//W3C//DTD SVG 1.1//EN" "http://www.w3.org/Graphics/SVG/1.1/DTD/svg11.dtd">
<svg version="1.1" id="Vrstva_1" xmlns="http://www.w3.org/2000/svg" xmlns:xlink="http://www.w3.org/1999/xlink" x="0px" y="0px"
	 width="48.498px" height="24.796px" viewBox="-2.5 36.667 48.498 24.796" enable-background="new -2.5 36.667 48.498 24.796"
	 xml:space="preserve">
<title>Page 1</title>
<desc>Created with Sketch.</desc>
<g id="Clip-2">
</g>
<defs>
	<filter id="Adobe_OpacityMaskFilter" filterUnits="userSpaceOnUse" x="-2.5" y="36.667" width="48.498" height="24.796">
		<feColorMatrix  type="matrix" values="1 0 0 0 0  0 1 0 0 0  0 0 1 0 0  0 0 0 1 0"/>
	</filter>
</defs>
<mask maskUnits="userSpaceOnUse" x="-2.5" y="36.667" width="48.498" height="24.796" id="mask-2">
	<g filter="url(#Adobe_OpacityMaskFilter)">
		<polygon id="path-1" fill="#FFFFFF" points="-2.5,36.668 45.998,36.668 45.998,61.465 -2.5,61.465 		"/>
	</g>
</mask>
<path id="Fill-1" mask="url(#mask-2)" fill="#40A3D5" d="M45.146,47.411l-12.83-10.271c-1.14-0.911-2.069-0.463-2.069,0.994v4.564
	c-0.198-0.048-0.403-0.08-0.616-0.08H0.151c-1.458,0-2.651,1.191-2.651,2.649v7.595c0,1.459,1.193,2.651,2.651,2.651h29.478
	c0.213,0,0.418-0.032,0.616-0.081v4.566c0,1.457,0.931,1.903,2.068,0.994l12.83-10.271C46.283,49.811,46.283,48.32,45.146,47.411"/>
</svg>
