<?xml version="1.0" encoding="utf-8"?>
<!-- Generator: Adobe Illustrator 16.0.0, SVG Export Plug-In . SVG Version: 6.00 Build 0)  -->
<!DOCTYPE svg PUBLIC "-//W3C//DTD SVG 1.1//EN" "http://www.w3.org/Graphics/SVG/1.1/DTD/svg11.dtd">
<svg version="1.1" id="Vrstva_1" xmlns="http://www.w3.org/2000/svg" xmlns:xlink="http://www.w3.org/1999/xlink" x="0px" y="0px"
	 width="17px" height="17.811px" viewBox="0 0 17 17.811" enable-background="new 0 0 17 17.811" xml:space="preserve">
<g>
	<path fill="#00497B" d="M8.5,3.238c-2.901,0-5.262,2.36-5.262,5.262c0,2.293,1.482,4.307,3.643,5.003v0.664
		c0,0.224,0.182,0.404,0.405,0.404h2.429c0.223,0,0.405-0.182,0.405-0.404v-0.664c2.16-0.697,3.644-2.711,3.644-5.003
		C13.762,5.599,11.4,3.238,8.5,3.238L8.5,3.238z"/>
	<path fill="#00497B" d="M8.905,17H8.095c-0.223,0-0.405,0.183-0.405,0.404c0,0.224,0.182,0.405,0.405,0.405h0.811
		c0.223,0,0.405-0.183,0.405-0.405C9.311,17.182,9.128,17,8.905,17L8.905,17z"/>
	<path fill="#00497B" d="M9.714,15.381H7.286c-0.223,0-0.405,0.183-0.405,0.404c0,0.224,0.182,0.405,0.405,0.405h2.429
		c0.223,0,0.405-0.183,0.405-0.405C10.119,15.563,9.938,15.381,9.714,15.381L9.714,15.381z"/>
	<path fill="#00497B" d="M8.5,2.429c0.223,0,0.405-0.183,0.405-0.405V0.405C8.905,0.181,8.723,0,8.5,0
		C8.276,0,8.095,0.181,8.095,0.405v1.619C8.095,2.247,8.276,2.429,8.5,2.429L8.5,2.429z"/>
	<path fill="#00497B" d="M16.595,8.094h-1.618c-0.224,0-0.406,0.182-0.406,0.405c0,0.225,0.183,0.405,0.406,0.405h1.618
		C16.818,8.905,17,8.724,17,8.5C17,8.276,16.818,8.094,16.595,8.094L16.595,8.094z"/>
	<path fill="#00497B" d="M2.024,8.094H0.405C0.181,8.094,0,8.276,0,8.5c0,0.225,0.181,0.405,0.405,0.405h1.619
		c0.223,0,0.405-0.181,0.405-0.405C2.429,8.276,2.247,8.094,2.024,8.094L2.024,8.094z"/>
	<path fill="#00497B" d="M3.634,4.209c0.08,0.078,0.183,0.118,0.287,0.118s0.208-0.04,0.287-0.118c0.158-0.158,0.158-0.415,0-0.573
		L2.49,1.918c-0.158-0.159-0.415-0.159-0.572,0c-0.158,0.158-0.158,0.414,0,0.572L3.634,4.209L3.634,4.209z"/>
	<path fill="#00497B" d="M13.079,4.327c0.104,0,0.208-0.04,0.287-0.118l1.718-1.719c0.158-0.159,0.158-0.415,0-0.572
		c-0.158-0.159-0.415-0.159-0.572,0l-1.718,1.718c-0.158,0.158-0.158,0.414,0,0.573C12.872,4.287,12.975,4.327,13.079,4.327
		L13.079,4.327z"/>
</g>
</svg>
