<?xml version="1.0" encoding="utf-8"?>
<!-- Generator: Adobe Illustrator 16.0.0, SVG Export Plug-In . SVG Version: 6.00 Build 0)  -->
<!DOCTYPE svg PUBLIC "-//W3C//DTD SVG 1.1//EN" "http://www.w3.org/Graphics/SVG/1.1/DTD/svg11.dtd">
<svg version="1.1" id="Vrstva_1" xmlns="http://www.w3.org/2000/svg" xmlns:xlink="http://www.w3.org/1999/xlink" x="0px" y="0px"
	 width="16.179px" height="11.766px" viewBox="0 0 16.179 11.766" enable-background="new 0 0 16.179 11.766" xml:space="preserve">
<g>
	<g>
		<path fill="#0078B4" d="M2.205,5.885H0l2.94,2.94l2.941-2.94H3.677c0-2.427,1.985-4.413,4.413-4.413
			c0.736,0,1.469,0.22,2.057,0.514l1.103-1.103C10.294,0.369,9.264,0,8.089,0C4.854,0,2.205,2.646,2.205,5.885L2.205,5.885z
			 M12.502,5.885c0,2.423-1.985,4.408-4.413,4.408c-0.736,0-1.472-0.219-2.061-0.512l-1.102,1.102
			c0.955,0.517,1.985,0.883,3.163,0.883c3.235,0,5.881-2.646,5.881-5.881h2.208L13.234,2.94l-2.94,2.944H12.502z M12.502,5.885"/>
	</g>
</g>
</svg>
