<?xml version="1.0" encoding="utf-8"?>
<!-- Generator: Adobe Illustrator 16.0.0, SVG Export Plug-In . SVG Version: 6.00 Build 0)  -->
<!DOCTYPE svg PUBLIC "-//W3C//DTD SVG 1.1//EN" "http://www.w3.org/Graphics/SVG/1.1/DTD/svg11.dtd">
<svg version="1.1" id="Capa_1" xmlns="http://www.w3.org/2000/svg" xmlns:xlink="http://www.w3.org/1999/xlink" x="0px" y="0px"
	 width="12.664px" height="12.665px" viewBox="223.062 223.205 12.664 12.665"
	 enable-background="new 223.062 223.205 12.664 12.665" xml:space="preserve">
<g>
	<g>
		<g id="map_9_">
			<path fill="#40A3D5" d="M235.726,235.518v-10.625c0-0.141-0.141-0.281-0.281-0.352l-3.94-1.337l-4.221,1.478l-3.729-1.478
				c-0.07,0-0.07,0-0.141,0c-0.211,0-0.352,0.141-0.352,0.352v10.624c0,0.211,0.141,0.281,0.281,0.352l3.94,1.338l4.221-1.479
				l3.729,1.479c0.07,0,0.07,0,0.142,0C235.585,235.869,235.726,235.729,235.726,235.518z M231.504,232.984l-4.221,1.477v-8.372
				l4.221-1.478V232.984z"/>
		</g>
	</g>
</g>
</svg>
