<?xml version="1.0" encoding="utf-8"?>
<!-- Generator: Adobe Illustrator 16.0.0, SVG Export Plug-In . SVG Version: 6.00 Build 0)  -->
<!DOCTYPE svg PUBLIC "-//W3C//DTD SVG 1.1//EN" "http://www.w3.org/Graphics/SVG/1.1/DTD/svg11.dtd">
<svg version="1.1" id="Capa_1" xmlns="http://www.w3.org/2000/svg" xmlns:xlink="http://www.w3.org/1999/xlink" x="0px" y="0px"
	 width="13.564px" height="13.564px" viewBox="153.341 275.99 13.564 13.564" enable-background="new 153.341 275.99 13.564 13.564"
	 xml:space="preserve">
<g>
	<g id="call">
		<path fill="#40A3D5" d="M156.054,281.868c1.055,2.11,2.864,3.843,4.974,4.974l1.658-1.658c0.226-0.226,0.528-0.301,0.754-0.15
			c0.829,0.302,1.733,0.452,2.713,0.452c0.452,0,0.753,0.302,0.753,0.754v2.562c0,0.452-0.301,0.754-0.753,0.754
			c-7.084,0-12.811-5.728-12.811-12.811c0-0.452,0.301-0.754,0.753-0.754h2.638c0.452,0,0.753,0.302,0.753,0.754
			c0,0.904,0.151,1.809,0.452,2.713c0.076,0.226,0,0.527-0.15,0.753L156.054,281.868z"/>
	</g>
</g>
</svg>
