<svg xmlns="http://www.w3.org/2000/svg" width="27" height="26.998" viewBox="-6.301 -6.3 27 26.998"><path fill="#E32B32" d="M6.153 2.101c.145 0 .145 0 0 0 .145-.6.298-.901.298-1.346v-.3c.146-.756.146-1.357 0-1.503v-.154l-.153-.145s0 .145-.145.145c-.302.9-.302 1.957 0 3.303m-4.506 10.35c-.3.146-.593.3-.747.446-1.047.901-1.802 1.956-1.949 2.404.901-.148 1.804-1.048 2.696-2.85.154 0 .154 0 0 0 .154 0 0 0 0 0m13.808-2.249c-.153-.153-.756-.601-2.858-.601h-.293v.149c1.05.452 2.095.753 2.852.753h.446v-.154c-.001-.001-.147-.001-.147-.147M17.702-6.3H-3.296a3.008 3.008 0 0 0-3.005 3.005v20.997a3.005 3.005 0 0 0 3.005 2.996h20.998a3.003 3.003 0 0 0 2.997-2.996V-3.295A3.007 3.007 0 0 0 17.702-6.3m-1.649 17.703a3.023 3.023 0 0 1-1.354.303c-1.201 0-2.996-.303-4.497-1.057-2.547.3-4.505.601-5.997 1.204-.154 0-.154 0-.302.154-1.802 3.147-3.302 4.642-4.505 4.642-.3 0-.447 0-.601-.146l-.747-.448V15.9c-.154-.298-.154-.444-.154-.747.154-.754 1.055-2.102 2.858-3.147.299-.153.746-.454 1.346-.756.447-.747.901-1.648 1.501-2.695.749-1.502 1.201-3.003 1.648-4.35-.599-1.802-.898-2.858-.299-4.953.146-.599.601-1.201 1.203-1.201h.298c.3 0 .601.146.901.3 1.048 1.047.601 3.45 0 5.398v.154c.603 1.648 1.494 2.996 2.398 3.899.452.3.752.599 1.353.899.749 0 1.348-.146 1.948-.146 1.802 0 3.003.291 3.45 1.047.146.302.146.601.146.901-.146.146-.301.6-.594.9M6.298 5.551C6 6.598 5.397 7.801 4.804 9.147c-.298.603-.599 1.055-.901 1.655h.302c1.948-.753 3.75-1.201 4.942-1.354-.301-.146-.447-.301-.594-.447-.752-.9-1.655-2.102-2.255-3.45"/></svg>