<?xml version="1.0" encoding="utf-8"?>
<!-- Generator: Adobe Illustrator 16.0.0, SVG Export Plug-In . SVG Version: 6.00 Build 0)  -->
<!DOCTYPE svg PUBLIC "-//W3C//DTD SVG 1.1//EN" "http://www.w3.org/Graphics/SVG/1.1/DTD/svg11.dtd">
<svg version="1.1" id="Vrstva_1" xmlns="http://www.w3.org/2000/svg" xmlns:xlink="http://www.w3.org/1999/xlink" x="0px" y="0px"
	 width="14.205px" height="14.207px" viewBox="0 0 14.205 14.207" enable-background="new 0 0 14.205 14.207" xml:space="preserve">
<path fill="#FFFFFF" d="M13.112,14.207c-0.29,0-0.571-0.121-0.767-0.324l-2.93-2.921c-0.998,0.692-2.193,1.058-3.406,1.058
	c-3.32,0-6.01-2.689-6.01-6.01C0,2.69,2.689,0,6.01,0c3.322,0,6.01,2.69,6.01,6.011c0,1.212-0.367,2.408-1.058,3.406l2.928,2.929
	c0.196,0.195,0.315,0.478,0.315,0.767C14.205,13.712,13.711,14.207,13.112,14.207z M6.009,2.186c-2.109,0-3.825,1.719-3.825,3.825
	c0,2.109,1.716,3.825,3.825,3.825S9.834,8.12,9.834,6.011C9.834,3.903,8.118,2.186,6.009,2.186z"/>
</svg>
