<?xml version="1.0" encoding="utf-8"?>
<!-- Generator: Adobe Illustrator 16.0.0, SVG Export Plug-In . SVG Version: 6.00 Build 0)  -->
<!DOCTYPE svg PUBLIC "-//W3C//DTD SVG 1.1//EN" "http://www.w3.org/Graphics/SVG/1.1/DTD/svg11.dtd">
<svg version="1.1" id="Vrstva_1" xmlns="http://www.w3.org/2000/svg" xmlns:xlink="http://www.w3.org/1999/xlink" x="0px" y="0px"
	 width="25.812px" height="24.351px" viewBox="0 0 25.812 24.351" enable-background="new 0 0 25.812 24.351" xml:space="preserve">
<g>
	<path fill="#A2CBE1" d="M25.812,23.644l-2.978-2.978c0.59-0.735,0.958-1.655,0.958-2.668c0-2.366-1.926-4.292-4.292-4.292
		s-4.292,1.926-4.292,4.292s1.926,4.292,4.292,4.292c0.992,0,1.896-0.353,2.623-0.92l2.981,2.982L25.812,23.644z M16.208,17.998
		c0-1.815,1.477-3.292,3.292-3.292s3.292,1.477,3.292,3.292S21.315,21.29,19.5,21.29S16.208,19.813,16.208,17.998z"/>
	<path fill="#A2CBE1" d="M21,12.54h1V5.729l-7.143-5.43L7.896,5.381L0,0v17.819l7.935,4.888l4.492-3.393l-0.604-0.799L8,21.405
		V6.542l6-4.38v9.377h1V1.663l6,4.563V12.54z M7,20.957L1,17.26V1.891L7,5.98V20.957z"/>
</g>
</svg>
