<svg xmlns="http://www.w3.org/2000/svg" width="17" height="22.95" viewBox="0 0 17 22.95"><path fill-rule="evenodd" clip-rule="evenodd" fill="#FFF" d="M2.392.815c.323-.187.64-.395.979-.551a2.928 2.928 0 0 1 3.563.917c.289.39.437.831.558 1.297.159.612.627 2.389.683 2.634a2.925 2.925 0 0 1-1.391 3.175c-.23.133-.465.255-.714.296a1.82 1.82 0 0 0-1.218 2.367 20.259 20.259 0 0 0 2.375 4.136l.033.032a1.822 1.822 0 0 0 2.66.129c.159-.195.383-.338.611-.471a2.924 2.924 0 0 1 3.445.384c.185.17 1.489 1.464 1.939 1.908.344.337.651.686.845 1.131a2.925 2.925 0 0 1-.987 3.544c-.305.216-.644.386-.967.572a4.73 4.73 0 0 1-4.854-.072 19.936 19.936 0 0 1-7.264-7.297A19.95 19.95 0 0 1 0 4.801c.012-1.6 1.024-3.196 2.392-3.986"/></svg>