<?xml version="1.0" encoding="utf-8"?>
<!-- Generator: Adobe Illustrator 16.0.0, SVG Export Plug-In . SVG Version: 6.00 Build 0)  -->
<!DOCTYPE svg PUBLIC "-//W3C//DTD SVG 1.1//EN" "http://www.w3.org/Graphics/SVG/1.1/DTD/svg11.dtd">
<svg version="1.1" id="Vrstva_1" xmlns="http://www.w3.org/2000/svg" xmlns:xlink="http://www.w3.org/1999/xlink" x="0px" y="0px"
	 width="13.051px" height="12.422px" viewBox="0 0 13.051 12.422" enable-background="new 0 0 13.051 12.422" xml:space="preserve">
<g enable-background="new    ">
	<g>
		<path fill="#D0021B" d="M0,5.896c0-0.285,0.117-0.563,0.311-0.765l0.629-0.627c0.202-0.192,0.477-0.312,0.762-0.312
			s0.563,0.117,0.754,0.312l2.463,2.463V1.07C4.918,0.484,5.405,0,5.991,0h1.072c0.586,0,1.072,0.484,1.072,1.07v5.897l2.463-2.463
			c0.193-0.192,0.469-0.312,0.754-0.312s0.561,0.117,0.762,0.312l0.619,0.627c0.201,0.201,0.318,0.479,0.318,0.765
			s-0.117,0.563-0.318,0.754L7.28,12.111c-0.193,0.192-0.469,0.311-0.754,0.311s-0.563-0.115-0.764-0.311L0.311,6.65
			C0.117,6.457,0,6.182,0,5.896z"/>
	</g>
</g>
</svg>
