<?xml version="1.0" encoding="utf-8"?>
<!-- Generator: Adobe Illustrator 16.0.0, SVG Export Plug-In . SVG Version: 6.00 Build 0)  -->
<!DOCTYPE svg PUBLIC "-//W3C//DTD SVG 1.1//EN" "http://www.w3.org/Graphics/SVG/1.1/DTD/svg11.dtd">
<svg version="1.1" id="Vrstva_1" xmlns="http://www.w3.org/2000/svg" xmlns:xlink="http://www.w3.org/1999/xlink" x="0px" y="0px"
	 width="11.823px" height="11.823px" viewBox="12.849 8.49 11.823 11.823" enable-background="new 12.849 8.49 11.823 11.823"
	 xml:space="preserve">
<path fill="#E30613" d="M24.394,18.682l-1.354,1.354c-0.181,0.179-0.429,0.278-0.677,0.278c-0.249,0-0.499-0.1-0.677-0.278
	l-2.926-2.926l-2.927,2.926c-0.18,0.179-0.428,0.278-0.676,0.278c-0.249,0-0.498-0.1-0.678-0.278l-1.354-1.354
	c-0.18-0.181-0.278-0.428-0.278-0.677s0.099-0.498,0.278-0.677l2.927-2.926l-2.927-2.927c-0.18-0.179-0.278-0.428-0.278-0.677
	c0-0.248,0.099-0.497,0.278-0.676L14.48,8.77c0.18-0.18,0.429-0.279,0.678-0.279c0.248,0,0.497,0.1,0.676,0.279l2.927,2.926
	l2.926-2.926c0.179-0.18,0.428-0.279,0.677-0.279c0.248,0,0.497,0.1,0.677,0.279l1.354,1.354c0.179,0.18,0.278,0.428,0.278,0.676
	c0,0.249-0.1,0.498-0.278,0.677l-2.927,2.927l2.927,2.926c0.179,0.179,0.278,0.428,0.278,0.677S24.572,18.502,24.394,18.682z"/>
</svg>
