<svg xmlns="http://www.w3.org/2000/svg" width="18" height="19.385" viewBox="0 0 18 19.385"><path fill="#CED8E3" d="M17.589 3.181a1.328 1.328 0 0 0-.973-.411h-1.385V1.731a1.67 1.67 0 0 0-.508-1.223A1.671 1.671 0 0 0 13.5 0h-.692c-.476 0-.883.17-1.222.508a1.668 1.668 0 0 0-.509 1.223V2.77H6.923V1.731A1.67 1.67 0 0 0 6.415.508 1.671 1.671 0 0 0 5.192 0H4.5c-.476 0-.883.17-1.222.508-.34.34-.508.747-.508 1.223V2.77H1.385c-.375 0-.7.137-.974.411A1.328 1.328 0 0 0 0 4.154V18c0 .375.137.699.411.974.274.274.598.411.974.411h15.23c.375 0 .7-.137.974-.411.274-.274.411-.599.411-.974V4.154c0-.375-.137-.7-.411-.973zM4.5 18H1.385v-3.115H4.5V18zm0-3.807H1.385v-3.461H4.5v3.461zm0-4.154H1.385V6.923H4.5v3.116zM4.257 5.09a.333.333 0 0 1-.103-.244V1.731c0-.094.034-.175.103-.243a.329.329 0 0 1 .243-.103h.692c.094 0 .175.035.244.103a.333.333 0 0 1 .103.243v3.115a.337.337 0 0 1-.103.244.337.337 0 0 1-.244.103H4.5a.337.337 0 0 1-.243-.103zM8.654 18H5.192v-3.115h3.462V18zm0-3.807H5.192v-3.461h3.462v3.461zm0-4.154H5.192V6.923h3.462v3.116zM12.808 18H9.347v-3.115h3.461V18zm0-3.807H9.347v-3.461h3.461v3.461zm0-4.154H9.347V6.923h3.461v3.116zm-.244-4.949a.336.336 0 0 1-.102-.244V1.731c0-.094.034-.175.102-.243s.149-.103.243-.103h.693c.094 0 .175.035.243.103a.329.329 0 0 1 .103.243v3.115a.333.333 0 0 1-.103.244.333.333 0 0 1-.243.103h-.692a.34.34 0 0 1-.244-.103zM16.615 18H13.5v-3.115h3.115V18zm0-3.807H13.5v-3.461h3.115v3.461zm0-4.154H13.5V6.923h3.115v3.116zm0 0"/></svg>