<?xml version="1.0" encoding="utf-8"?>
<!-- Generator: Adobe Illustrator 16.0.0, SVG Export Plug-In . SVG Version: 6.00 Build 0)  -->
<!DOCTYPE svg PUBLIC "-//W3C//DTD SVG 1.1//EN" "http://www.w3.org/Graphics/SVG/1.1/DTD/svg11.dtd">
<svg version="1.1" id="Vrstva_1" xmlns="http://www.w3.org/2000/svg" xmlns:xlink="http://www.w3.org/1999/xlink" x="0px" y="0px"
	 width="9.271px" height="19.542px" viewBox="0 0 9.271 19.542" enable-background="new 0 0 9.271 19.542" xml:space="preserve">
<path fill="#303A45" d="M6.662,6.564C5.555,6.563,3.769,6.562,2.664,6.561L1.131,6.559c-1.1-0.002-1.454-0.732-0.812-1.608
	l1.235-1.684l1.904-2.596c0.655-0.895,1.714-0.895,2.365,0l0.085,0.113l3.044,4.174c0.649,0.89,0.272,1.61-0.831,1.608L6.662,6.564
	L6.662,6.564z"/>
<path fill="#D6D8DA" d="M2.609,13.002c1.107,0.001,2.894,0.003,3.998,0.004l1.533,0.002c1.1,0.002,1.454,0.732,0.812,1.608
	L7.717,16.3l-1.904,2.596c-0.655,0.895-1.714,0.895-2.365,0l-0.085-0.113l-3.044-4.174c-0.649-0.89-0.272-1.61,0.831-1.608
	L2.609,13.002L2.609,13.002z"/>
</svg>
