<?xml version="1.0" encoding="utf-8"?>
<!-- Generator: Adobe Illustrator 16.0.0, SVG Export Plug-In . SVG Version: 6.00 Build 0)  -->
<!DOCTYPE svg PUBLIC "-//W3C//DTD SVG 1.1//EN" "http://www.w3.org/Graphics/SVG/1.1/DTD/svg11.dtd">
<svg version="1.1" id="Vrstva_1" xmlns="http://www.w3.org/2000/svg" xmlns:xlink="http://www.w3.org/1999/xlink" x="0px" y="0px"
	 width="445px" height="308px" viewBox="0 0 445 308" enable-background="new 0 0 445 308" xml:space="preserve">
<g>
	<circle fill="#8F9FB1" cx="305.122" cy="118.046" r="1.741"/>
	<circle fill="#8F9FB1" cx="315.969" cy="118.046" r="1.741"/>
	<path fill="#8F9FB1" d="M335.721,97.719c-4.876,0-9.107,2.059-11.179,5.054c-3.601-4.011-8.549-6.358-13.852-6.358
		c-7.244,0-13.841,4.369-17.218,11.401c-1.45,3.021-2.217,6.422-2.217,9.836c0,2.521,0.497,5.234,1.44,7.85l0.124,0.346l0.341,0.136
		c2.669,1.058,5.46,1.661,8.314,1.802c2.283,3.495,5.568,5.691,9.215,5.691c3.647,0,6.934-2.197,9.219-5.692
		c2.723-0.136,5.397-0.695,7.968-1.674l0.762-0.288l0.123-0.363c0.854-2.503,1.365-5.422,1.365-7.808
		c0-0.299-0.013-0.598-0.024-0.897l1.588-1.118c1.338,0.337,2.693,0.508,4.03,0.508c6.912,0,12.535-4.133,12.535-9.213
		C348.256,101.853,342.633,97.719,335.721,97.719z M310.69,131.846c-2.776,0-5.313-1.531-7.234-4.041
		c-0.388-0.505-0.748-1.048-1.08-1.626c-1.584-2.75-2.539-6.291-2.539-10.152c0-1.314,0.112-2.615,0.335-3.883
		c1.978,1.547,4.393,2.384,6.937,2.384c2.758,0,5.371-0.986,7.434-2.792c1.923,1.39,4.249,2.148,6.623,2.148
		c0.093,0,0.187-0.002,0.279-0.004c0.068,0.714,0.103,1.434,0.103,2.146c0,3.861-0.956,7.402-2.538,10.151
		c-0.334,0.579-0.695,1.122-1.08,1.627C316.005,130.315,313.47,131.846,310.69,131.846z M327.339,124.571l-0.04,0.016
		c-2.076,0.791-4.225,1.289-6.412,1.494c1.44-2.844,2.291-6.312,2.291-10.053c0-1.035-0.067-2.081-0.2-3.11l-0.1-0.779l-0.783,0.071
		l-0.01,0.001c-0.313,0.029-0.622,0.044-0.92,0.044c-2.237,0-4.422-0.787-6.153-2.215l-0.57-0.469l-0.523,0.519
		c-1.826,1.812-4.244,2.808-6.81,2.808c-2.594,0-5.033-1.019-6.869-2.87l-1.028-1.036l-0.343,1.419
		c-0.438,1.812-0.661,3.702-0.661,5.617c0,3.742,0.851,7.209,2.29,10.054c-2.186-0.203-4.326-0.697-6.391-1.48
		c-0.798-2.331-1.22-4.726-1.22-6.949c0-3.171,0.711-6.328,2.056-9.129c3.104-6.463,9.138-10.478,15.748-10.478
		c5.018,0,9.698,2.314,13.021,6.252c-0.34,0.835-0.525,1.719-0.525,2.635c0,1.836,0.732,3.601,2.123,5.124v8.074l3.181-2.24
		C328.461,119.946,328.04,122.396,327.339,124.571z M335.721,114.514c-1.317,0-2.653-0.184-3.972-0.547l-0.372-0.103l-1.425,1.003
		l-1.531,1.078l-1.482,1.043v-5.589l-0.23-0.237c-1.236-1.267-1.891-2.729-1.891-4.23c0-0.348,0.045-0.688,0.11-1.023
		c0.126-0.64,0.358-1.254,0.699-1.833c1.626-2.769,5.534-4.726,10.094-4.726c6.013,0,10.904,3.401,10.904,7.581
		C346.625,111.113,341.733,114.514,335.721,114.514z"/>
	<polygon fill="#8F9FB1" points="332.037,107.135 333.389,107.135 333.389,106.437 332.037,106.437 332.037,105.741 
		333.611,105.741 333.611,105.043 331.238,105.043 331.238,108.607 333.703,108.607 333.703,107.909 332.037,107.909 	"/>
	<path fill="#8F9FB1" d="M336.521,106.665c0,0.151,0.005,0.368,0.016,0.636c-0.124-0.199-0.269-0.416-0.431-0.646l-1.139-1.611
		h-0.787v3.564h0.8v-1.624c0-0.165-0.006-0.376-0.016-0.638c0.148,0.242,0.296,0.465,0.438,0.666l1.13,1.596h0.786v-3.564h-0.798
		V106.665z"/>
	<path fill="#8F9FB1" d="M339.294,107.315h0.759v0.626c-0.035,0.005-0.075,0.011-0.119,0.016c-0.455,0.045-0.806-0.046-1.03-0.265
		c-0.188-0.181-0.284-0.462-0.288-0.833c0-0.194,0.033-0.365,0.096-0.51c0.061-0.144,0.147-0.267,0.254-0.365
		c0.107-0.098,0.237-0.173,0.384-0.224c0.27-0.09,0.581-0.093,0.88-0.046c0.129,0.022,0.259,0.053,0.385,0.094l0.117,0.037v-0.713
		l-0.061-0.021c-0.103-0.037-0.234-0.067-0.392-0.093c-0.343-0.055-0.729-0.055-1.062,0.026c-0.177,0.044-0.341,0.107-0.484,0.187
		c-0.146,0.081-0.278,0.18-0.396,0.297c-0.116,0.116-0.214,0.246-0.294,0.387c-0.081,0.142-0.143,0.299-0.184,0.465
		c-0.041,0.165-0.063,0.342-0.063,0.525c0,0.256,0.04,0.494,0.117,0.709c0.081,0.216,0.201,0.405,0.361,0.563
		c0.157,0.156,0.36,0.278,0.599,0.365c0.235,0.085,0.513,0.129,0.826,0.129c0.105,0,0.211-0.005,0.313-0.017
		c0.105-0.009,0.208-0.023,0.306-0.04c0.1-0.015,0.189-0.035,0.271-0.055c0.082-0.021,0.148-0.041,0.201-0.06l0.061-0.021v-1.862
		h-1.559V107.315z"/>
</g>
<g>
	<path fill="#8F9FB1" d="M337.901,190.375h-15.969v-9.84c0-0.742-0.604-1.345-1.346-1.345h-8.967
		c-0.734-3.002-3.438-5.239-6.662-5.239c-3.783,0-6.863,3.079-6.863,6.864c0,3.785,3.08,6.864,6.863,6.864
		c0.223,0,0.442-0.013,0.66-0.033v31.959c0,0.742,0.604,1.347,1.345,1.347h13.624c0.741,0,1.346-0.604,1.346-1.347v-10.231h15.969
		c0.863,0,1.566-0.702,1.566-1.565V191.94C339.468,191.077,338.765,190.375,337.901,190.375z M304.958,186.115
		c-2.922,0-5.3-2.377-5.3-5.3s2.378-5.3,5.3-5.3c2.355,0,4.354,1.545,5.043,3.675l0,0c0.076,0.236,0.133,0.481,0.176,0.73
		c0.008,0.045,0.014,0.091,0.021,0.136c0.035,0.248,0.061,0.5,0.061,0.759c0,0.07-0.008,0.138-0.011,0.208l0,0
		c-0.075,1.933-1.186,3.605-2.798,4.467l0,0c-0.559,0.299-1.178,0.498-1.832,0.58l0,0
		C305.402,186.096,305.183,186.115,304.958,186.115z M320.101,219.119h-12.65v-31.915c2.493-0.977,4.276-3.367,4.36-6.181h8.29
		v9.353h-5.409v-4.461h-1.832v4.475v18.034v5.392h1.832v-4.442h5.409V219.119z M337.635,207.541h-22.943v-15.334h22.943V207.541z"/>
	<path fill="#8F9FB1" d="M308.277,178.522c-2.081,0.953-3.724,2.323-4.534,3.073l-0.97-1.489l-1.023,0.667l1.8,2.762l0.532-0.565
		c0.021-0.021,1.993-2.096,4.703-3.336L308.277,178.522z"/>
	<polygon fill="#8F9FB1" points="321.221,197.018 320.07,197.018 317.746,197.829 317.746,199.271 319.631,198.734 319.631,201.315 
		317.856,201.315 317.856,202.703 322.798,202.703 322.798,201.315 321.221,201.315 	"/>
	<path fill="#8F9FB1" d="M323.976,201.98c0.231,0.266,0.521,0.479,0.858,0.633c0.337,0.152,0.728,0.229,1.161,0.229
		c0.441,0,0.836-0.077,1.177-0.229c0.337-0.153,0.625-0.367,0.854-0.634c0.228-0.267,0.401-0.585,0.517-0.946
		c0.113-0.356,0.17-0.75,0.17-1.17s-0.057-0.813-0.17-1.17c-0.117-0.362-0.289-0.682-0.517-0.949
		c-0.229-0.269-0.517-0.482-0.854-0.633c-0.337-0.15-0.732-0.227-1.176-0.227c-0.436,0-0.827,0.076-1.161,0.227
		c-0.338,0.151-0.627,0.364-0.858,0.633c-0.23,0.267-0.407,0.585-0.525,0.948c-0.117,0.359-0.177,0.753-0.177,1.172
		s0.06,0.813,0.177,1.171C323.568,201.396,323.745,201.714,323.976,201.98z M325.197,198.63c0.186-0.268,0.446-0.398,0.798-0.398
		c0.35,0,0.608,0.13,0.793,0.398c0.191,0.28,0.289,0.695,0.289,1.232c0,0.539-0.098,0.953-0.289,1.233
		c-0.185,0.268-0.443,0.399-0.793,0.399c-0.354,0-0.612-0.131-0.798-0.399c-0.191-0.281-0.29-0.695-0.29-1.233
		C324.907,199.327,325.006,198.912,325.197,198.63z"/>
	<path fill="#8F9FB1" d="M329.88,201.98c0.231,0.266,0.52,0.479,0.857,0.633c0.337,0.152,0.728,0.229,1.162,0.229
		c0.44,0,0.835-0.077,1.176-0.229c0.338-0.153,0.625-0.367,0.854-0.634c0.229-0.268,0.401-0.586,0.515-0.946
		c0.114-0.356,0.171-0.75,0.171-1.17s-0.057-0.813-0.171-1.17c-0.113-0.362-0.288-0.68-0.515-0.949
		c-0.229-0.269-0.516-0.482-0.854-0.633c-0.337-0.15-0.733-0.227-1.176-0.227c-0.438,0-0.827,0.076-1.162,0.227
		c-0.338,0.151-0.626,0.364-0.857,0.633c-0.23,0.267-0.407,0.585-0.527,0.948c-0.115,0.359-0.176,0.753-0.176,1.172
		s0.061,0.813,0.176,1.171C329.473,201.396,329.649,201.714,329.88,201.98z M331.101,198.63c0.185-0.268,0.446-0.398,0.799-0.398
		c0.348,0,0.607,0.13,0.791,0.398c0.192,0.28,0.289,0.695,0.289,1.232c0,0.539-0.097,0.953-0.289,1.233
		c-0.184,0.268-0.443,0.399-0.791,0.399c-0.354,0-0.614-0.131-0.799-0.399c-0.191-0.281-0.29-0.695-0.29-1.233
		C330.811,199.327,330.909,198.912,331.101,198.63z"/>
</g>
<g>
	<path fill="#8F9FB1" d="M234.097,200.537c0-4.921-3.721-8.985-8.495-9.54v-8.708c0-0.695-0.565-1.26-1.261-1.26h-12.725
		c-0.695,0-1.261,0.565-1.261,1.26v36.495c0,0.695,0.565,1.26,1.261,1.26h12.725c0.695,0,1.261-0.565,1.261-1.26v-8.708
		C230.376,209.521,234.097,205.458,234.097,200.537z M212.072,218.328v-35.583h11.813v8.214c-1.821,0.118-3.573,0.755-5.048,1.841
		v-5.486h-1.716v7.095v12.256v6.713h1.716v-5.105c1.475,1.087,3.227,1.724,5.048,1.841v8.214H212.072z M225.599,208.343
		c-0.16,0.022-0.324,0.041-0.488,0.056c-0.206,0.017-0.413,0.032-0.624,0.032c-2.146,0-4.141-0.86-5.649-2.43v-10.929
		c1.509-1.569,3.503-2.429,5.649-2.429c0.211,0,0.418,0.015,0.624,0.032c0.165,0.015,0.328,0.033,0.488,0.056
		c3.827,0.543,6.781,3.832,6.781,7.806C232.38,204.51,229.426,207.799,225.599,208.343z"/>
	<polygon fill="#8F9FB1" points="225.046,198.462 223.68,198.462 222.11,200.355 222.11,198.462 221.023,198.462 221.023,203.308 
		222.11,203.308 222.11,201.413 223.808,203.308 225.215,203.308 223.026,200.862 	"/>
	<path fill="#8F9FB1" d="M227.626,197.367l-0.334,0.377l-0.33-0.377h-1.036l0.933,1.066c-0.173,0.034-0.336,0.082-0.488,0.146
		c-0.316,0.132-0.585,0.317-0.797,0.549c-0.211,0.233-0.373,0.509-0.484,0.822c-0.11,0.309-0.167,0.652-0.167,1.017
		c0,0.353,0.053,0.682,0.156,0.978c0.105,0.3,0.266,0.56,0.474,0.774c0.21,0.214,0.475,0.382,0.787,0.5
		c0.309,0.116,0.668,0.175,1.07,0.175c0.205,0,0.405-0.014,0.595-0.041c0.194-0.027,0.369-0.064,0.536-0.112l0.089-0.026v-0.987
		l-0.161,0.054c-0.148,0.05-0.309,0.087-0.488,0.116c-0.404,0.062-0.817,0.055-1.125-0.059c-0.173-0.063-0.32-0.157-0.44-0.281
		c-0.119-0.122-0.213-0.281-0.279-0.47c-0.065-0.191-0.099-0.418-0.099-0.672c0-0.255,0.036-0.486,0.109-0.686
		c0.071-0.196,0.172-0.36,0.297-0.491c0.129-0.133,0.277-0.231,0.457-0.301c0.299-0.117,0.658-0.126,1.035-0.072
		c0.149,0.021,0.314,0.06,0.493,0.116l0.159,0.049v-0.969l-0.082-0.028c-0.151-0.052-0.317-0.091-0.493-0.118
		c-0.08-0.012-0.163-0.021-0.248-0.028l0.896-1.023H227.626z"/>
</g>
<g>
	<path fill="#8F9FB1" d="M412.955,30.306c-0.334,0-0.667-0.033-0.994-0.1c-0.326-0.065-0.607-0.163-0.832-0.287l-0.081-0.045v-1.261
		l0.221,0.095c0.286,0.124,0.567,0.216,0.836,0.271c0.42,0.087,0.873,0.119,1.322,0.044c0.15-0.026,0.286-0.07,0.404-0.132
		c0.11-0.056,0.197-0.131,0.264-0.228c0.063-0.093,0.093-0.208,0.093-0.349c0-0.117-0.025-0.206-0.077-0.272
		c-0.061-0.075-0.146-0.137-0.248-0.185c-0.118-0.055-0.249-0.1-0.403-0.136c-0.158-0.037-0.324-0.073-0.5-0.11
		c-0.242-0.052-0.472-0.115-0.686-0.185c-0.227-0.075-0.433-0.181-0.607-0.315c-0.18-0.138-0.325-0.317-0.43-0.529
		c-0.107-0.212-0.16-0.477-0.16-0.787c0-0.338,0.061-0.64,0.181-0.895c0.12-0.256,0.285-0.471,0.494-0.638
		c0.206-0.167,0.449-0.293,0.722-0.375c0.53-0.157,1.233-0.153,1.902-0.023c0.333,0.064,0.625,0.15,0.866,0.253l0.096,0.04v1.278
		l-0.217-0.086c-0.298-0.118-0.589-0.206-0.865-0.259c-0.639-0.123-1.229-0.104-1.523,0.092c-0.153,0.102-0.225,0.248-0.225,0.461
		c0,0.123,0.023,0.218,0.071,0.291c0.053,0.079,0.12,0.143,0.208,0.194c0.101,0.059,0.217,0.104,0.344,0.139
		c0.143,0.039,0.291,0.072,0.448,0.105c0.26,0.055,0.509,0.119,0.743,0.189c0.247,0.075,0.47,0.181,0.66,0.316
		c0.199,0.138,0.359,0.322,0.477,0.547c0.116,0.223,0.175,0.508,0.175,0.846c0,0.346-0.065,0.653-0.197,0.909
		c-0.13,0.258-0.317,0.476-0.559,0.644c-0.233,0.164-0.521,0.288-0.854,0.367C413.7,30.267,413.34,30.306,412.955,30.306"/>
	<path fill="#8F9FB1" d="M422.226,25.729c-0.137-0.399-0.338-0.749-0.6-1.039c-0.264-0.291-0.592-0.52-0.976-0.682
		c-0.382-0.159-0.819-0.241-1.301-0.241c-0.482,0-0.92,0.082-1.301,0.241c-0.385,0.162-0.712,0.391-0.976,0.681
		c-0.262,0.289-0.464,0.639-0.602,1.04c-0.135,0.395-0.203,0.835-0.203,1.309c0,0.472,0.068,0.913,0.203,1.31
		c0.136,0.398,0.338,0.748,0.602,1.038c0.264,0.291,0.591,0.52,0.976,0.681c0.379,0.159,0.816,0.24,1.301,0.24
		c0.481,0,0.919-0.081,1.301-0.24c0.383-0.162,0.711-0.391,0.974-0.681c0.264-0.291,0.467-0.641,0.602-1.039
		c0.136-0.397,0.205-0.837,0.205-1.309C422.431,26.564,422.361,26.124,422.226,25.729 M420.854,27.945
		c-0.082,0.251-0.197,0.462-0.341,0.627c-0.142,0.162-0.313,0.284-0.507,0.366c-0.398,0.166-0.915,0.166-1.313,0
		c-0.194-0.082-0.365-0.205-0.507-0.366c-0.144-0.165-0.259-0.375-0.341-0.627c-0.084-0.257-0.127-0.562-0.127-0.908
		c0-0.348,0.043-0.652,0.127-0.908c0.082-0.252,0.197-0.466,0.341-0.63c0.142-0.163,0.312-0.286,0.506-0.367
		c0.198-0.081,0.419-0.122,0.658-0.122c0.238,0,0.459,0.041,0.656,0.122c0.194,0.081,0.365,0.204,0.507,0.367
		c0.144,0.165,0.259,0.377,0.341,0.629c0.085,0.257,0.127,0.562,0.127,0.909C420.98,27.383,420.938,27.688,420.854,27.945"/>
	<path fill="#8F9FB1" d="M416.797,39.246h-1.392l-2.001-2.829c-0.255-0.353-0.516-0.75-0.783-1.186
		c0.02,0.471,0.028,0.846,0.028,1.14v2.875h-1.414v-6.315h1.393l2.02,2.856c0.288,0.411,0.546,0.795,0.766,1.151
		c-0.02-0.49-0.03-0.87-0.03-1.133v-2.875h1.414V39.246z"/>
	<polygon fill="#8F9FB1" points="422.28,39.246 417.915,39.246 417.915,32.931 422.119,32.931 422.119,34.165 419.331,34.165 
		419.331,35.402 421.724,35.402 421.724,36.635 419.331,36.635 419.331,38.011 422.28,38.011 	"/>
	<rect x="411.048" y="19.126" fill="#8F9FB1" width="11.253" height="1.775"/>
	<rect x="411.048" y="15.226" fill="#8F9FB1" width="11.253" height="1.776"/>
	<path fill="#8F9FB1" d="M428.457,46.886h-23.565c-0.723,0-1.312-0.589-1.312-1.313V7.826c0-0.725,0.589-1.313,1.312-1.313h4.537
		v0.888c0,0.499,0.406,0.904,0.904,0.904c0.499,0,0.905-0.405,0.905-0.904V6.514h4.534v0.959c0.028,0.472,0.422,0.848,0.903,0.848
		c0.484,0,0.882-0.385,0.903-0.866l-0.001-0.942h4.338v0.95c0.024,0.478,0.421,0.857,0.901,0.857c0.484,0,0.881-0.382,0.904-0.86
		V6.514h4.735c0.724,0,1.313,0.588,1.313,1.313v37.747C429.77,46.297,429.181,46.886,428.457,46.886 M405.356,45.109h22.638V8.29
		h-2.641c-0.362,1.051-1.361,1.808-2.536,1.808c-1.172,0-2.171-0.756-2.534-1.808h-1.073c-0.363,1.051-1.362,1.808-2.534,1.808
		c-1.173,0-2.172-0.756-2.535-1.808h-1.278c-0.367,1.042-1.362,1.792-2.529,1.792s-2.163-0.75-2.528-1.792h-2.448V45.109z"/>
</g>
<g>
	<path fill="#8F9FB1" d="M143.732,11.217h-38.277c-0.773,0-1.401,0.628-1.401,1.4v13.347c0,0.772,0.628,1.401,1.401,1.401h9.021
		v17.783c0,0.891,0.725,1.616,1.613,1.616h17.087c0.891,0,1.616-0.725,1.616-1.616V27.365h8.94c0.771,0,1.399-0.628,1.399-1.401
		V12.617C145.132,11.845,144.504,11.217,143.732,11.217z M116.434,27.365v-1.959v-5.135h12.069v24.536h-12.069V27.365z
		 M132.832,44.806h-2.37V20.271h2.37v5.135v1.959V44.806z M143.173,25.406h-8.381v-5.135h3.669v-1.959h-3.684h-19.289h-4.362v1.959
		h3.35v5.135h-8.463V13.176h37.16V25.406z"/>
	<rect x="119.044" y="39.186" fill="#8F9FB1" width="1.959" height="2.992"/>
	<rect x="119.044" y="34.632" fill="#8F9FB1" width="1.959" height="2.992"/>
</g>
<g>
	<path fill="#8F9FB1" d="M24.132,36.737c4.342,0,7.873-3.532,7.873-7.873s-3.531-7.872-7.873-7.872
		c-4.341,0-7.872,3.531-7.872,7.872S19.791,36.737,24.132,36.737z M24.132,22.625c3.439,0,6.239,2.798,6.239,6.239
		s-2.8,6.239-6.239,6.239s-6.239-2.799-6.239-6.239S20.692,22.625,24.132,22.625z"/>
	<path fill="#8F9FB1" d="M24.132,32.494c2.002,0,3.629-1.628,3.629-3.63s-1.627-3.63-3.629-3.63s-3.63,1.628-3.63,3.63
		S22.13,32.494,24.132,32.494z M24.132,26.868c1.101,0,1.996,0.896,1.996,1.996s-0.896,1.996-1.996,1.996s-1.996-0.896-1.996-1.996
		S23.031,26.868,24.132,26.868z"/>
	<path fill="#8F9FB1" d="M42.165,18.45c0-4.104,2.431-7.823,6.191-9.475l1.703-0.748l-1.703-0.748
		c-1.523-0.669-3.143-1.008-4.811-1.008c-3.775,0-7.145,1.757-9.343,4.494H8.648c-1.332,0-2.416,1.083-2.416,2.415v30.968
		c0,1.333,1.084,2.416,2.416,2.416h30.967c1.333,0,2.416-1.083,2.416-2.416V30.329c0.497,0.063,1.001,0.099,1.515,0.099
		c1.668,0,3.287-0.339,4.811-1.008l1.703-0.748l-1.703-0.748C44.596,26.272,42.165,22.554,42.165,18.45z M40.398,44.348
		c0,0.431-0.351,0.783-0.783,0.783H8.648c-0.432,0-0.782-0.352-0.782-0.783V13.38c0-0.431,0.351-0.782,0.782-0.782h24.45
		c-0.466,0.829-0.836,1.719-1.096,2.654H12.936c-1.332,0-2.415,1.084-2.415,2.416v0.987h-0.313c-0.754,0-1.367,0.613-1.367,1.367
		v3.902c0,0.753,0.613,1.367,1.367,1.367h0.313v6.84h-0.313c-0.754,0-1.367,0.613-1.367,1.367V37.4c0,0.754,0.613,1.367,1.367,1.367
		h0.313v1.293c0,1.332,1.083,2.416,2.415,2.416h22.393c1.332,0,2.416-1.083,2.416-2.416V28.925c0.829,0.461,1.719,0.826,2.654,1.081
		V44.348z M10.521,37.134h-0.046v-3.369h0.046h1.549v3.369H10.521z M12.154,38.767h0.181c0.754,0,1.367-0.613,1.367-1.367v-3.902
		c0-0.754-0.613-1.367-1.367-1.367h-0.181v-6.84h0.181c0.754,0,1.367-0.613,1.367-1.367v-3.902c0-0.754-0.613-1.367-1.367-1.367
		h-0.181v-0.987c0-0.431,0.351-0.782,0.781-0.782h18.736c-0.066,0.512-0.105,1.034-0.105,1.564c0,3.798,1.778,7.186,4.544,9.382
		v12.229c0,0.431-0.351,0.782-0.782,0.782H12.936c-0.431,0-0.781-0.351-0.781-0.782V38.767z M10.521,23.658h-0.046v-3.369h0.046
		h1.549v3.369H10.521z M43.546,28.795c-0.517,0-1.021-0.051-1.517-0.124c-0.271-0.041-0.54-0.089-0.805-0.148
		c-0.051-0.012-0.101-0.026-0.15-0.039c-0.229-0.054-0.454-0.111-0.676-0.182l0,0c-0.951-0.305-1.845-0.741-2.654-1.292l0,0
		c-0.295-0.201-0.578-0.417-0.85-0.647c-0.007-0.005-0.013-0.011-0.019-0.017c-0.267-0.228-0.521-0.467-0.766-0.719
		c-1.798-1.862-2.91-4.39-2.91-7.177c0-0.533,0.053-1.052,0.131-1.564l0,0c0.042-0.271,0.093-0.54,0.153-0.805
		c0.008-0.038,0.02-0.074,0.028-0.112c0.059-0.242,0.122-0.482,0.198-0.717l0,0c0.313-0.957,0.759-1.854,1.321-2.667
		c0.2-0.29,0.416-0.569,0.646-0.836c0.005-0.007,0.012-0.013,0.017-0.019c0.23-0.267,0.474-0.522,0.729-0.765
		c1.856-1.768,4.36-2.86,7.122-2.86c0.834,0,1.653,0.098,2.451,0.293c-2.336,1.514-4.058,3.789-4.895,6.406
		c-0.002,0.007-0.004,0.014-0.006,0.021c-0.071,0.225-0.138,0.451-0.195,0.68c-0.008,0.03-0.013,0.062-0.021,0.092
		c-0.051,0.206-0.099,0.414-0.139,0.624c-0.012,0.063-0.02,0.128-0.03,0.191c-0.031,0.179-0.063,0.357-0.086,0.539
		c-0.014,0.114-0.021,0.23-0.033,0.344c-0.013,0.134-0.028,0.266-0.036,0.4c-0.016,0.25-0.024,0.502-0.024,0.756
		c0,0.258,0.009,0.515,0.024,0.77c0.004,0.049,0.011,0.098,0.014,0.146c0.017,0.206,0.034,0.411,0.06,0.614
		c0.006,0.047,0.016,0.092,0.022,0.138c0.028,0.206,0.06,0.411,0.1,0.614c0.005,0.026,0.012,0.051,0.017,0.077
		c0.045,0.222,0.094,0.443,0.151,0.661c0.004,0.013,0.008,0.026,0.011,0.039c0.759,2.863,2.558,5.366,5.066,6.993
		C45.199,28.696,44.38,28.795,43.546,28.795z"/>
	<path fill="#8F9FB1" d="M47.557,20.566c0-1.372,1.117-2.489,2.49-2.489v-0.043c-0.003,0-0.004,0-0.005,0
		c-1.372,0-2.488-1.117-2.488-2.49h-0.002c0-0.003,0.002-0.005,0.002-0.009h-0.045c0,1.373-1.116,2.489-2.489,2.489v0.043h0.005
		c1.373,0,2.488,1.117,2.488,2.489h0.001c0,0.004-0.001,0.006-0.001,0.009H47.557z"/>
</g>
<g>
	<rect x="395.971" y="219.075" fill="#8F9FB1" width="41.41" height="2.266"/>
	<path fill="#8F9FB1" d="M416.663,205.545c-1.071,0-1.942,0.87-1.942,1.942c0,1.073,0.871,1.942,1.942,1.942
		c1.074,0,1.941-0.869,1.941-1.942C418.604,206.415,417.737,205.545,416.663,205.545"/>
	<path fill="#8F9FB1" d="M416.663,200.034c-2.613,0-5.066,1.401-6.406,3.657c-0.32,0.539-0.143,1.233,0.395,1.553
		c0.54,0.321,1.234,0.142,1.554-0.397c0.946-1.594,2.613-2.547,4.458-2.547c1.829,0,3.542,0.984,4.473,2.567
		c0.21,0.36,0.588,0.561,0.977,0.561c0.195,0,0.393-0.051,0.573-0.156c0.54-0.316,0.72-1.012,0.403-1.551
		C421.754,201.447,419.292,200.034,416.663,200.034"/>
	<path fill="#8F9FB1" d="M426.937,199.217c-2.52-3.127-6.265-4.921-10.273-4.921c-3.994,0-7.73,1.785-10.251,4.895
		c-0.393,0.486-0.318,1.2,0.168,1.594c0.486,0.395,1.199,0.318,1.593-0.167c2.088-2.577,5.183-4.056,8.49-4.056
		c3.32,0,6.422,1.486,8.51,4.078c0.223,0.277,0.552,0.421,0.883,0.421c0.25,0,0.501-0.082,0.709-0.251
		C427.253,200.417,427.329,199.704,426.937,199.217"/>
	<path fill="#8F9FB1" d="M436.925,216.072h-40.502c-0.788,0-1.428-0.64-1.428-1.425v-25.285c0-0.788,0.64-1.427,1.428-1.427h40.502
		c0.787,0,1.428,0.64,1.428,1.427v25.285C438.353,215.432,437.712,216.072,436.925,216.072 M396.938,214.13h39.472v-24.254h-39.472
		V214.13z"/>
</g>
<g>
	
		<rect x="42.894" y="267.448" transform="matrix(0.7071 0.7071 -0.7071 0.7071 205.8544 48.8019)" fill="#8F9FB1" width="2.248" height="10.883"/>
	
		<rect x="12.425" y="297.916" transform="matrix(0.707 0.7072 -0.7072 0.707 218.509 79.3016)" fill="#8F9FB1" width="2.249" height="10.883"/>
	<path fill="#8F9FB1" d="M29.343,299.468c-7.772,0-15.023-4.187-18.924-10.926l-0.326-0.563l0.326-0.563
		c3.899-6.74,11.151-10.928,18.924-10.928c7.771,0,15.024,4.188,18.924,10.928l0.326,0.563l-0.326,0.563
		C44.366,295.281,37.114,299.468,29.343,299.468 M12.703,287.979c3.571,5.716,9.886,9.241,16.64,9.241
		c6.753,0,13.068-3.524,16.64-9.241c-3.571-5.717-9.886-9.242-16.64-9.242S16.274,282.262,12.703,287.979"/>
	<path fill="#8F9FB1" d="M29.343,279.825c-4.268,0-7.74,3.471-7.74,7.739c0,4.267,3.473,7.739,7.74,7.739s7.74-3.472,7.74-7.739
		C37.083,283.296,33.61,279.825,29.343,279.825z M25.613,287.564c-0.869,0-1.573-0.705-1.573-1.573c0-0.869,0.704-1.574,1.573-1.574
		c0.87,0,1.573,0.705,1.573,1.574C27.187,286.859,26.483,287.564,25.613,287.564z M31.259,292.706c-1.705,0-3.088-1.381-3.088-3.086
		c0-1.257,0.752-2.336,1.832-2.817c-0.001,0.007-0.002,0.015-0.002,0.022c0,1.705,1.383,3.086,3.086,3.086
		c0.448,0,0.872-0.098,1.256-0.269C34.331,291.336,32.954,292.706,31.259,292.706z"/>
</g>
<g>
	<path fill="#8F9FB1" d="M145.237,221.117h-38.254c-1.646,0-2.984-1.338-2.984-2.984v-38.255c0-1.646,1.339-2.984,2.984-2.984
		h38.254c1.646,0,2.984,1.338,2.984,2.984v38.255C148.222,219.778,146.884,221.117,145.237,221.117 M106.983,178.912
		c-0.533,0-0.967,0.434-0.967,0.966v38.255c0,0.532,0.434,0.966,0.967,0.966h38.254c0.534,0,0.967-0.434,0.967-0.966v-38.255
		c0-0.533-0.433-0.966-0.967-0.966H106.983z"/>
	<path fill="#8F9FB1" d="M118.854,203.557l-1.486-1.487l0.047-0.069c0.619-0.885,0.944-1.921,0.944-2.996
		c0-1.073-0.328-2.108-0.944-2.994l-0.05-0.069l1.489-1.487l0.071,0.09c0.997,1.297,1.523,2.84,1.523,4.46
		c0,1.623-0.526,3.165-1.523,4.461L118.854,203.557z"/>
	<path fill="#8F9FB1" d="M124.166,208.87l-1.477-1.477l0.063-0.072c2.003-2.319,3.106-5.273,3.106-8.316
		c0-3.043-1.104-5.997-3.106-8.317l-0.063-0.071l1.477-1.477l0.071,0.082c2.394,2.718,3.711,6.192,3.711,9.784
		c0,3.591-1.316,7.065-3.71,9.784L124.166,208.87z"/>
	<path fill="#8F9FB1" d="M129.042,213.745l-1.494-1.495l0.064-0.07c3.304-3.632,5.122-8.312,5.122-13.174
		c0-4.864-1.818-9.543-5.122-13.175l-0.064-0.071l1.494-1.493l0.07,0.078c3.684,4.018,5.713,9.224,5.713,14.661
		c0,5.436-2.029,10.644-5.713,14.661L129.042,213.745z"/>
</g>
<g>
	<path fill="#8F9FB1" d="M220.828,304.325c-2.319,0-4.525-0.843-6.057-2.312l1.651-1.721c1.091,1.047,2.698,1.648,4.405,1.648
		c2.513,0,3.628-1.519,5.174-3.622c0.764-1.039,1.63-2.216,2.759-3.28c4.128-3.883,4.957-6.089,4.957-8.387
		c0-4.408-4.169-7.995-9.294-7.995c-4.873,0-8.946,3.273-9.272,7.452c-0.014,0.18-0.021,0.359-0.021,0.543h-2.384
		c0-0.246,0.009-0.488,0.028-0.727c0.421-5.413,5.538-9.651,11.648-9.651c6.439,0,11.678,4.656,11.678,10.378
		c0,3.421-1.6,6.26-5.706,10.125c-0.974,0.915-1.734,1.952-2.472,2.956C226.263,301.989,224.546,304.325,220.828,304.325"/>
	<path fill="#8F9FB1" d="M228.306,292.584l-1.24-2.037c1.274-0.775,2.035-2.026,2.035-3.344c0-2.273-2.186-4.121-4.873-4.121
		c-1.988,0-3.759,1.008-4.516,2.57l-2.146-1.036c1.15-2.38,3.763-3.918,6.661-3.918c4,0,7.258,2.918,7.258,6.505
		C231.485,289.36,230.296,291.372,228.306,292.584"/>
	
		<rect x="235.984" y="272.864" transform="matrix(0.659 0.7522 -0.7522 0.659 288.7318 -84.1577)" fill="#8F9FB1" width="2.384" height="6.951"/>
	
		<rect x="214.099" y="281.251" transform="matrix(0.6593 0.7519 -0.7519 0.6593 295.5327 -61.1933)" fill="#8F9FB1" width="2.385" height="28.525"/>
</g>
<g>
	<path fill="#8F9FB1" d="M49.706,221.469H6.459c-1.13,0-2.05-0.92-2.05-2.05v-26.032c0-1.132,0.921-2.052,2.052-2.052h43.243
		c1.137,0,2.063,0.926,2.063,2.063v26.009C51.767,220.544,50.842,221.469,49.706,221.469 M6.555,219.323h43.067v-25.843H6.555
		V219.323z"/>
	<path fill="#8F9FB1" d="M46.092,203.074l-1.464-1.626c-0.117-0.13-0.284-0.205-0.459-0.205h-0.939l-0.208-1.033
		c-0.194-0.966-0.829-1.543-1.697-1.543H12.213c-0.945,0-1.715,0.77-1.715,1.714v9.937c0,0.944,0.77,1.713,1.715,1.713h1.441
		c0.44,1.222,1.601,2.103,2.974,2.103s2.533-0.881,2.976-2.103h0.853c0.441,1.222,1.603,2.103,2.975,2.103
		c1.374,0,2.533-0.881,2.975-2.103h8.708c0.442,1.222,1.602,2.103,2.975,2.103c1.372,0,2.533-0.881,2.975-2.103h2.281
		c0.945,0,1.714-0.769,1.714-1.713l-1.474-7.316c0.086,0.022,0.165,0.061,0.226,0.128l0.994,1.104
		c0.229,0.253,0.619,0.274,0.871,0.046l0.372-0.335C46.3,203.717,46.32,203.328,46.092,203.074z M38.954,200.403h2.325
		c0.012,0.031,0.028,0.08,0.043,0.152l1.075,5.293l-3.443-1.984V200.403z M12.213,200.402l25.008,0.001v3.096H12.219L12.213,200.402
		z M16.628,212.401c-0.794,0-1.439-0.646-1.439-1.439s0.646-1.44,1.439-1.44c0.795,0,1.44,0.646,1.44,1.44
		S17.423,212.401,16.628,212.401z M23.431,212.401c-0.795,0-1.439-0.646-1.439-1.439s0.645-1.44,1.439-1.44s1.44,0.646,1.44,1.44
		S24.226,212.401,23.431,212.401z M38.088,212.401c-0.795,0-1.44-0.646-1.44-1.439s0.646-1.44,1.44-1.44s1.439,0.646,1.439,1.44
		S38.883,212.401,38.088,212.401z M41.189,210.3c-0.305-1.433-1.579-2.513-3.102-2.513c-1.524,0-2.799,1.082-3.104,2.517
		l-8.448,0.006c-0.302-1.438-1.578-2.522-3.105-2.522s-2.806,1.086-3.105,2.526l-0.59,0.001c-0.301-1.441-1.579-2.527-3.107-2.527
		c-1.529,0-2.809,1.088-3.106,2.531l-1.289,0l-0.011-5.086h25.635l5.002,2.881l0.443,2.185L41.189,210.3z"/>
</g>
<g>
	<circle fill="#8F9FB1" cx="316.948" cy="36.676" r="1.26"/>
	<path fill="#8F9FB1" d="M334.627,39.106c-0.543,0.418-1.859,1.433-2.499,1.751c-0.023-0.06-0.051-0.135-0.082-0.226
		c-0.388-1.141-0.682-2.167-0.939-3.073c-0.759-2.652-1.308-4.567-3.229-5.764c-0.551-0.343-1.499-0.458-2.665-0.426
		c-1.751-2.717-4.798-4.524-8.264-4.524c-1.214,0-2.372,0.232-3.446,0.636l-0.001-6.999c0-0.636,0.248-1.235,0.697-1.686
		c0.45-0.45,1.048-0.697,1.685-0.697h0.001c0.636,0,1.233,0.247,1.684,0.696c0.45,0.45,0.698,1.048,0.698,1.684l-0.006,3.031
		c-0.004,2.22,2.72,3.064,5.053,3.113l0.049-2.249c-1.443-0.034-2.854-0.521-2.854-0.86l0.006-3.036
		c0-1.237-0.481-2.399-1.356-3.274c-0.453-0.452-0.983-0.797-1.562-1.026c1.734-0.596,2.986-2.239,2.986-4.172
		c0-2.436-1.98-4.417-4.415-4.417c-2.436,0-4.416,1.981-4.416,4.417c0,1.829,1.118,3.401,2.707,4.07
		c-0.69,0.222-1.323,0.604-1.851,1.132c-0.874,0.875-1.355,2.039-1.354,3.274v6.979c-0.918-1.994-1.78-3.503-2.426-3.896
		c-1.192-0.727-4.089-0.347-5.28-0.15l0.367,2.218c1.552-0.255,3.257-0.324,3.723-0.155c0.426,0.431,1.269,2.179,2.215,4.413
		c-1.689,1.766-2.734,4.153-2.734,6.785c0,5.42,4.41,9.831,9.831,9.831s9.832-4.411,9.832-9.831c0-1.098-0.188-2.15-0.522-3.136
		c0.194,0.024,0.359,0.06,0.462,0.117c1.152,0.718,1.552,1.968,2.278,4.504c0.266,0.93,0.566,1.982,0.972,3.175
		c0.171,0.507,0.492,1.45,1.429,1.734c0.172,0.051,0.344,0.079,0.521,0.079c0.947,0,2.032-0.754,4.046-2.306L334.627,39.106z
		 M314,12.005c0-1.196,0.972-2.168,2.167-2.168c1.194,0,2.166,0.972,2.166,2.168c0,1.194-0.972,2.166-2.166,2.166
		C314.972,14.171,314,13.199,314,12.005z M316.948,44.258c-4.181,0-7.582-3.402-7.582-7.583s3.401-7.583,7.582-7.583
		c4.182,0,7.583,3.402,7.583,7.583S321.13,44.258,316.948,44.258z"/>
</g>
<g>
	<path fill="#8F9FB1" d="M142.39,133.618h-35.602c-1.468,0-2.663-1.194-2.663-2.663V95.354c0-1.469,1.195-2.663,2.663-2.663h35.602
		c1.469,0,2.662,1.194,2.662,2.663v35.602C145.052,132.423,143.858,133.618,142.39,133.618 M106.788,94.491
		c-0.476,0-0.862,0.387-0.862,0.862v35.602c0,0.476,0.387,0.862,0.862,0.862h35.602c0.477,0,0.861-0.386,0.861-0.862V95.354
		c0-0.476-0.385-0.862-0.861-0.862H106.788z"/>
	<rect x="108.586" y="97.351" fill="#8F9FB1" width="1.617" height="28.916"/>
	<rect x="113.688" y="97.351" fill="#8F9FB1" width="1.619" height="28.916"/>
	<rect x="118.521" y="97.351" fill="#8F9FB1" width="2.158" height="28.916"/>
	<rect x="123.896" y="97.351" fill="#8F9FB1" width="1.617" height="28.916"/>
	<rect x="128.46" y="97.351" fill="#8F9FB1" width="2.696" height="28.916"/>
	<rect x="134.103" y="97.351" fill="#8F9FB1" width="1.619" height="28.916"/>
	<rect x="139.207" y="97.351" fill="#8F9FB1" width="1.619" height="28.916"/>
	<rect x="108.543" y="127.756" fill="#8F9FB1" width="22.606" height="1.8"/>
	<rect x="134.112" y="127.756" fill="#8F9FB1" width="6.689" height="1.8"/>
</g>
<g>
	<path fill="#8F9FB1" d="M215.354,19.901h-13.683V6.219h13.683V19.901z M203.332,18.241h10.362V7.878h-10.362V18.241z"/>
	<rect x="205.209" y="9.753" fill="#8F9FB1" width="6.641" height="6.642"/>
	<path fill="#8F9FB1" d="M242.857,19.901h-13.683V6.219h13.683V19.901z M230.834,18.241h10.364V7.878h-10.364V18.241z"/>
	<rect x="232.711" y="9.753" fill="#8F9FB1" width="6.642" height="6.642"/>
	<path fill="#8F9FB1" d="M215.37,47.326h-13.682V33.644h13.682V47.326z M203.349,45.666h10.362V35.304h-10.362V45.666z"/>
	<rect x="205.227" y="37.179" fill="#8F9FB1" width="6.641" height="6.641"/>
	<rect x="227.295" y="29.333" fill="#8F9FB1" width="2.571" height="2.573"/>
	<rect x="232.438" y="29.333" fill="#8F9FB1" width="2.572" height="2.572"/>
	<polygon fill="#8F9FB1" points="240.151,31.905 240.151,34.478 240.151,37.048 242.723,37.048 242.723,34.478 242.723,31.905 
		242.723,29.333 242.723,26.763 240.151,26.763 240.151,29.333 	"/>
	<rect x="217.012" y="8.764" fill="#8F9FB1" width="5.142" height="2.571"/>
	<rect x="222.151" y="11.335" fill="#8F9FB1" width="2.573" height="2.572"/>
	<rect x="224.725" y="13.907" fill="#8F9FB1" width="2.571" height="2.571"/>
	<polygon fill="#8F9FB1" points="209.296,21.62 206.724,21.62 204.153,21.62 204.153,24.191 204.153,26.763 201.582,26.763 
		201.582,29.334 201.582,31.905 204.153,31.905 204.153,29.334 206.724,29.334 206.724,26.763 209.296,26.763 209.296,24.191 	"/>
	<rect x="209.296" y="26.763" fill="#8F9FB1" width="2.572" height="2.571"/>
	<rect x="211.868" y="24.19" fill="#8F9FB1" width="2.571" height="2.572"/>
	<rect x="214.439" y="29.333" fill="#8F9FB1" width="2.572" height="2.572"/>
	<rect x="235.01" y="34.476" fill="#8F9FB1" width="2.572" height="2.572"/>
	<polygon fill="#8F9FB1" points="237.58,39.62 235.009,39.62 235.009,42.191 237.58,42.191 237.58,44.762 240.151,44.762 
		240.151,42.191 240.151,39.62 240.151,37.048 237.58,37.048 	"/>
	<rect x="240.151" y="44.762" fill="#8F9FB1" width="2.571" height="2.572"/>
	<rect x="224.725" y="34.476" fill="#8F9FB1" width="2.571" height="2.572"/>
	<polygon fill="#8F9FB1" points="227.296,37.048 227.296,39.62 229.866,39.62 232.438,39.62 232.438,37.048 229.866,37.048 	"/>
	<rect x="229.866" y="42.19" fill="#8F9FB1" width="2.571" height="2.572"/>
	<rect x="224.725" y="44.762" fill="#8F9FB1" width="2.571" height="2.572"/>
	<rect x="222.151" y="39.62" fill="#8F9FB1" width="2.573" height="2.571"/>
	<polygon fill="#8F9FB1" points="219.581,39.62 217.01,39.62 217.01,42.191 217.01,44.762 219.581,44.762 222.153,44.762 
		222.153,42.191 219.581,42.191 	"/>
	<polygon fill="#8F9FB1" points="219.581,39.62 222.153,39.62 222.153,37.048 222.153,34.477 219.581,34.477 219.581,37.048 	"/>
	<rect x="224.725" y="8.764" fill="#8F9FB1" width="2.571" height="2.571"/>
	<rect x="217.012" y="31.905" fill="#8F9FB1" width="2.57" height="2.571"/>
	<rect x="214.439" y="21.62" fill="#8F9FB1" width="2.572" height="2.571"/>
	<polygon fill="#8F9FB1" points="219.581,19.049 219.581,16.478 217.01,16.478 217.01,19.049 217.01,21.621 219.581,21.621 	"/>
	<polygon fill="#8F9FB1" points="232.438,24.191 232.438,21.62 229.866,21.62 229.866,24.191 227.295,24.191 227.295,21.631 
		227.295,19.061 224.725,19.061 224.725,19.049 222.151,19.049 222.151,21.62 222.151,24.191 219.581,24.191 217.01,24.191 
		217.01,26.764 219.581,26.764 222.151,26.764 222.151,29.333 219.581,29.333 219.581,31.906 222.151,31.906 224.725,31.906 
		224.725,29.333 224.725,26.764 227.295,26.764 229.866,26.764 232.438,26.764 235.01,26.764 235.01,24.191 	"/>
	<rect x="235.01" y="26.763" fill="#8F9FB1" width="2.572" height="2.571"/>
	<polygon fill="#8F9FB1" points="242.723,24.191 242.723,21.62 240.151,21.62 237.58,21.62 237.58,24.191 237.58,26.764 
		240.151,26.764 240.151,24.191 	"/>
</g>
<g>
	<polygon fill="#8F9FB1" points="417.114,124.597 418.091,125.574 420.382,123.282 420.382,128.131 421.764,128.131 
		421.764,123.282 424.056,125.574 425.033,124.597 421.073,120.637 	"/>
	<path fill="#8F9FB1" d="M437.136,94.088h-40.678c-0.774,0-1.405,0.629-1.405,1.405v14.182c0,0.774,0.631,1.405,1.405,1.405h6.674
		l-7.521,7.687v15.089h1.914v-14.31l8.257-8.467h0.347v8.782l-2.657,2.66l1.353,1.352l6.701-6.705
		c1.334-1.334,3.313-1.525,4.41-0.428c0.512,0.513,0.763,1.239,0.702,2.045c-0.063,0.86-0.463,1.699-1.128,2.364
		c-0.083,0.083-12.735,12.707-12.735,12.707h2.709c0,0,0.892-0.89,2.176-2.172c0.034,0.003,0.068,0.012,0.104,0.012h18.153
		c0.902,0,1.635-0.732,1.635-1.634V111.08h9.585c0.775,0,1.405-0.63,1.405-1.405V95.493
		C438.541,94.717,437.911,94.088,437.136,94.088z M425.639,129.783h-16.075c3.245-3.236,7.249-7.232,7.299-7.282
		c0.987-0.989,1.585-2.259,1.683-3.574c0.101-1.371-0.347-2.627-1.259-3.54c-1.845-1.843-5.036-1.65-7.113,0.43l-2.132,2.132
		v-14.409h17.598V129.783z M436.628,109.167h-9.077v-5.628h3.985v-1.913h-29.053v1.913h3.645v4.478l-1.124,1.15h-8.038V96.001
		h39.662V109.167z"/>
	<polygon fill="#8F9FB1" points="412.409,110.984 411.041,110.984 411.041,112.056 414.854,112.056 414.854,110.984 
		413.636,110.984 413.636,107.667 412.749,107.667 410.954,108.293 410.954,109.407 412.409,108.992 	"/>
	<path fill="#8F9FB1" d="M415.765,111.498c0.179,0.207,0.401,0.371,0.66,0.488c0.26,0.117,0.562,0.177,0.897,0.177
		c0.342,0,0.646-0.059,0.908-0.177c0.261-0.118,0.483-0.282,0.66-0.489c0.175-0.206,0.309-0.452,0.396-0.73
		c0.088-0.277,0.132-0.581,0.132-0.903c0-0.323-0.044-0.628-0.132-0.903c-0.088-0.279-0.222-0.526-0.396-0.732
		c-0.176-0.208-0.398-0.373-0.66-0.49c-0.262-0.116-0.566-0.175-0.908-0.175c-0.336,0-0.637,0.059-0.896,0.175
		c-0.26,0.117-0.483,0.281-0.662,0.489c-0.178,0.207-0.315,0.454-0.405,0.732c-0.091,0.276-0.137,0.582-0.137,0.905
		c0,0.322,0.046,0.626,0.137,0.904C415.448,111.047,415.586,111.293,415.765,111.498z M416.707,108.913
		c0.142-0.208,0.344-0.309,0.615-0.309c0.27,0,0.469,0.101,0.611,0.308c0.15,0.216,0.226,0.537,0.226,0.952
		c0,0.414-0.075,0.734-0.226,0.95c-0.143,0.208-0.342,0.308-0.611,0.308c-0.271,0-0.474-0.101-0.615-0.307
		c-0.149-0.217-0.225-0.537-0.225-0.951C416.482,109.449,416.558,109.128,416.707,108.913z"/>
	<path fill="#8F9FB1" d="M420.321,111.498c0.18,0.207,0.403,0.371,0.661,0.488c0.26,0.117,0.562,0.177,0.896,0.177
		c0.341,0,0.647-0.059,0.908-0.177c0.262-0.118,0.483-0.282,0.66-0.489c0.175-0.206,0.309-0.452,0.396-0.73
		c0.089-0.277,0.134-0.581,0.134-0.903c0-0.323-0.045-0.628-0.134-0.903c-0.088-0.279-0.222-0.526-0.396-0.732
		c-0.176-0.208-0.397-0.373-0.66-0.49c-0.262-0.116-0.567-0.175-0.908-0.175c-0.334,0-0.637,0.059-0.896,0.175
		c-0.261,0.117-0.482,0.281-0.661,0.489c-0.178,0.207-0.315,0.454-0.406,0.732c-0.091,0.276-0.137,0.582-0.137,0.905
		c0,0.322,0.046,0.626,0.137,0.904C420.007,111.047,420.144,111.293,420.321,111.498z M421.263,108.913
		c0.143-0.208,0.345-0.309,0.616-0.309c0.27,0,0.47,0.101,0.612,0.308c0.147,0.216,0.226,0.537,0.226,0.952
		c0,0.414-0.078,0.734-0.226,0.95c-0.143,0.208-0.343,0.308-0.612,0.308c-0.271,0-0.474-0.101-0.616-0.307
		c-0.148-0.217-0.223-0.537-0.223-0.951C421.04,109.449,421.114,109.128,421.263,108.913z"/>
</g>
<g>
	<path fill="#8F9FB1" d="M51.062,122.334h-0.83v-1.336c0-2.538-1.898-4.636-4.349-4.961v-13.165c0-1.08-0.879-1.958-1.959-1.958
		H7.493c-1.08,0-1.959,0.878-1.959,1.958v26.184c0,1.08,0.879,1.958,1.959,1.958h30.915v1.631c0,0.536,0.436,0.973,0.972,0.973
		h11.682c0.535,0,0.972-0.437,0.972-0.973v-9.338C52.033,122.77,51.597,122.334,51.062,122.334z M48.907,120.999v1.335h-7.373
		v-0.964v-0.372c0-0.157,0.012-0.312,0.032-0.463c0.002-0.02,0.006-0.04,0.009-0.059c0.022-0.146,0.05-0.29,0.088-0.43l0,0
		c0.365-1.363,1.491-2.415,2.896-2.671l0,0c0.106-0.02,0.214-0.035,0.323-0.046c0.111-0.01,0.225-0.017,0.34-0.017
		c0.113,0,0.227,0.007,0.338,0.017c0.109,0.011,0.216,0.026,0.322,0.046C47.6,117.687,48.907,119.191,48.907,120.999z
		 M6.858,102.872c0-0.35,0.285-0.635,0.635-0.635h36.431c0.351,0,0.635,0.285,0.635,0.635v7.635h-37.7V102.872z M6.858,111.831h37.7
		v4.206c-2.136,0.284-3.851,1.914-4.256,4.009H6.858V111.831z M38.408,123.307v6.383H7.493c-0.35,0-0.635-0.285-0.635-0.634v-7.685
		H40.21v0.964h-0.83C38.844,122.334,38.408,122.77,38.408,123.307z M50.709,132.293H39.731v-8.635h0.479h1.324h7.373h1.324h0.478
		V132.293z"/>
	<path fill="#8F9FB1" d="M45.221,125.449c-0.74,0-1.341,0.601-1.341,1.341c0,0.463,0.236,0.872,0.594,1.112v1.197
		c0,0.412,0.335,0.747,0.747,0.747s0.747-0.335,0.747-0.747v-1.197c0.357-0.24,0.593-0.649,0.593-1.112
		C46.561,126.049,45.961,125.449,45.221,125.449z"/>
	<rect x="9.08" y="106.971" fill="#8F9FB1" width="3.753" height="1.325"/>
	<rect x="14.085" y="106.971" fill="#8F9FB1" width="3.754" height="1.325"/>
	<rect x="19.089" y="106.971" fill="#8F9FB1" width="3.754" height="1.325"/>
	<rect x="24.094" y="106.971" fill="#8F9FB1" width="3.754" height="1.325"/>
	<rect x="9.08" y="116.735" fill="#8F9FB1" width="3.753" height="1.324"/>
	<rect x="14.085" y="116.735" fill="#8F9FB1" width="3.754" height="1.324"/>
	<rect x="19.089" y="116.735" fill="#8F9FB1" width="3.754" height="1.324"/>
	<rect x="24.094" y="116.735" fill="#8F9FB1" width="3.754" height="1.324"/>
	<rect x="9.08" y="125.923" fill="#8F9FB1" width="3.753" height="1.324"/>
	<rect x="14.085" y="125.923" fill="#8F9FB1" width="3.754" height="1.324"/>
	<rect x="19.089" y="125.923" fill="#8F9FB1" width="3.754" height="1.324"/>
	<rect x="24.094" y="125.923" fill="#8F9FB1" width="3.754" height="1.324"/>
</g>
<g>
	<path fill="#8F9FB1" d="M219.615,118.288c-0.02,0.954-0.811,1.711-1.765,1.689c-0.955-0.02-1.71-0.81-1.689-1.765
		c0.021-0.954,0.811-1.711,1.765-1.69C218.88,116.543,219.637,117.334,219.615,118.288"/>
	<path fill="#8F9FB1" d="M227.636,120.442c-0.021,0.954-0.811,1.711-1.765,1.69c-0.954-0.021-1.712-0.81-1.69-1.765
		c0.021-0.955,0.812-1.711,1.766-1.69C226.899,118.698,227.657,119.489,227.636,120.442"/>
	<path fill="#8F9FB1" d="M221.087,129.836c-0.645,0-1.297-0.083-1.944-0.255c-3.881-1.037-6.287-4.928-5.481-8.857l1.36,0.278
		c-0.657,3.211,1.309,6.39,4.479,7.237c3.126,0.835,6.405-0.902,7.464-3.957l1.312,0.455
		C227.2,127.843,224.248,129.836,221.087,129.836"/>
	<path fill="#8F9FB1" d="M238.82,119.86c0.093-0.66,0.144-1.249,0.155-1.821c0.098-4.45-1.544-8.67-4.621-11.886
		c-1.344-1.405-2.894-2.543-4.582-3.389c0.091-0.597-0.025-1.21-0.344-1.761c-0.383-0.656-1.004-1.144-1.751-1.373
		c-1.392-0.427-2.872-0.292-4.1,0.348c0.007-0.303,0.056-0.6,0.144-0.89c0.257-0.836,0.835-1.542,1.628-1.987
		c0.452-0.254,0.95-0.413,1.479-0.473l0.488-0.056l-0.225-1.27l-0.432,0.049c-0.704,0.081-1.366,0.292-1.971,0.631
		c-1.082,0.606-1.871,1.574-2.223,2.722c-0.217,0.704-0.258,1.455-0.124,2.187c-0.043,0.042-0.077,0.09-0.116,0.133
		c-6.712,0.032-12.754,4.108-15.307,10.316c-0.103-0.011-0.205-0.019-0.305-0.021c-2.154-0.056-3.93,1.662-3.977,3.809
		c-0.042,1.913,1.273,3.515,3.089,3.89c0.675,8.452,7.692,15.13,16.227,15.316c0.124,0.003,0.247,0.004,0.372,0.004
		c5.516,0,10.577-2.675,13.707-7.232c0.365,0.124,0.739,0.19,1.117,0.198c2.163,0.048,3.932-1.662,3.979-3.808
		C241.164,121.904,240.239,120.488,238.82,119.86z M227.243,100.747c0.425,0.129,0.777,0.403,0.991,0.772
		c0.206,0.356,0.258,0.756,0.144,1.129c-0.113,0.372-0.381,0.675-0.752,0.854c-0.384,0.185-0.828,0.214-1.254,0.083
		c-1.213-0.372-2.165-1.239-2.602-2.351C224.756,100.558,226.03,100.374,227.243,100.747z M238.97,125.22
		c-0.484,0.463-1.111,0.712-1.788,0.696c-0.368-0.008-0.735-0.106-1.089-0.29l-0.563-0.291l-0.341,0.534
		c-2.903,4.548-7.835,7.189-13.205,7.075c-8.001-0.174-14.548-6.577-14.907-14.574l-0.027-0.633l-0.634-0.029
		c-1.369-0.063-2.419-1.184-2.39-2.551c0.029-1.363,1.149-2.451,2.505-2.451c0.021,0,0.037,0,0.056,0
		c0.181,0.004,0.367,0.033,0.591,0.093l0.611,0.164l0.219-0.593c2.109-5.689,7.378-9.547,13.337-9.934
		c-0.043,0.111-0.09,0.22-0.124,0.333c-0.385,1.255-0.22,2.596,0.466,3.775c0.679,1.168,1.787,2.037,3.119,2.446l0.443,0.136
		l0.376-1.227l-0.441-0.136c-1.012-0.31-1.851-0.965-2.361-1.845c-0.504-0.868-0.628-1.85-0.349-2.764
		c0.081-0.262,0.197-0.509,0.34-0.743c0.031,0.001,0.061,0.003,0.09,0.004c0.664,1.179,1.791,2.091,3.15,2.508
		c0.747,0.229,1.535,0.173,2.219-0.156c0.372-0.179,0.685-0.433,0.933-0.734c1.526,0.772,2.928,1.806,4.146,3.079
		c2.821,2.947,4.326,6.817,4.237,10.896c-0.015,0.666-0.087,1.364-0.227,2.2l-0.104,0.625l0.613,0.161
		c1.127,0.295,1.896,1.311,1.87,2.471C239.728,124.134,239.453,124.757,238.97,125.22z"/>
</g>
<g>
	<rect x="107.994" y="301.364" fill="#8F9FB1" width="4.914" height="2.655"/>
	<rect x="114.548" y="301.364" fill="#8F9FB1" width="4.914" height="2.655"/>
	<rect x="121.101" y="301.364" fill="#8F9FB1" width="4.914" height="2.655"/>
	<path fill="#8F9FB1" d="M132.614,274.541c-0.434,0-0.785,0.352-0.785,0.785l0.001,1.7l1.566,0c0,0,0.003-1.679,0.003-1.7
		C133.399,274.893,133.048,274.541,132.614,274.541z"/>
	<path fill="#8F9FB1" d="M127.256,276.747c-0.306,0.307-0.306,0.805,0.001,1.111l1.203,1.202l1.107-1.108c0,0-1.186-1.189-1.2-1.205
		C128.06,276.44,127.563,276.44,127.256,276.747z"/>
	<path fill="#8F9FB1" d="M125.884,281.235c-0.434,0-0.785,0.352-0.784,0.785c0,0.434,0.352,0.785,0.784,0.785h1.701l-0.001-1.567
		C127.584,281.238,125.904,281.235,125.884,281.235z"/>
	<path fill="#8F9FB1" d="M139.309,281.224h-1.7v1.567c0,0,1.68,0.002,1.701,0.002c0.434,0,0.784-0.352,0.784-0.786
		C140.094,281.574,139.742,281.224,139.309,281.224z"/>
	<path fill="#8F9FB1" d="M137.863,276.733c-0.306-0.306-0.804-0.306-1.109,0.001l-1.202,1.203l1.107,1.107
		c0,0,1.189-1.185,1.204-1.201C138.171,277.537,138.171,277.039,137.863,276.733z"/>
	<path fill="#8F9FB1" d="M112.785,266.751c-2.479,1.135-4.436,2.766-5.4,3.659l-1.155-1.772l-1.219,0.794l2.143,3.289l0.634-0.673
		c0.024-0.024,2.375-2.496,5.603-3.974L112.785,266.751z"/>
	<path fill="#8F9FB1" d="M147.532,265.292h-31.694c-1.431-2.382-4.032-3.985-7.007-3.985c-4.507,0-8.174,3.667-8.174,8.174
		c0,2.58,1.205,4.88,3.076,6.379v30.561c0,0.886,0.591,1.579,1.345,1.579h42.454c0.753,0,1.344-0.693,1.344-1.579v-39.55
		C148.876,265.986,148.285,265.292,147.532,265.292z M140.784,288.965c-0.28,0-0.558,0.062-0.809,0.18
		c-0.197-0.847-0.959-1.48-1.864-1.48c-0.271,0-0.539,0.059-0.783,0.168c-0.144-0.913-0.938-1.613-1.891-1.613
		c-0.262,0-0.521,0.054-0.758,0.157v-3.806c0-1.055-0.859-1.914-1.915-1.914c-1.055,0-1.914,0.859-1.914,1.914v9.962h-0.258
		l-0.932-1.403c-0.284-0.427-0.715-0.718-1.217-0.818c-0.5-0.102-1.012-0.001-1.438,0.283c-0.426,0.283-0.716,0.714-0.817,1.216
		c-0.049,0.242-0.048,0.487-0.006,0.723h-17.325v-14.88c4.017-0.013,7.352-2.938,8.019-6.769h27.215v21.649h-1.393v-1.654
		C142.698,289.824,141.84,288.965,140.784,288.965z M134.136,288.423c0.179,0.009,0.409-0.052,0.544-0.289
		c0.205-0.364,0.341-0.758,0.758-0.758c0.418,0,0.759,0.34,0.759,0.758v1.122c0,0.338,0.275,0.577,0.611,0.612
		c0.186,0.019,0.356,0.019,0.545-0.289c0.219-0.357,0.34-0.759,0.759-0.759c0.418,0,0.758,0.341,0.758,0.759v0.978
		c0,0.337,0.252,0.561,0.612,0.612c0.152,0.021,0.408-0.051,0.544-0.289c0.207-0.364,0.341-0.759,0.759-0.759
		s0.759,0.34,0.759,0.758l-0.006,5.442l-0.009,0.092c-0.126,3.469-1.979,5.655-4.74,5.594c-1.9-0.045-3.963-1.4-5.521-3.632
		l-0.002-0.003c0,0-0.222-0.324-0.33-0.495l-3.501-5.269c-0.112-0.168-0.151-0.371-0.111-0.57c0.041-0.199,0.155-0.37,0.323-0.482
		c0.172-0.114,0.37-0.153,0.57-0.112c0.198,0.04,0.37,0.155,0.481,0.323l2.187,3.292c0.336,0.504,1.122,0.267,1.122-0.339v-12.151
		c0-0.418,0.342-0.758,0.759-0.758c0.419,0,0.76,0.34,0.76,0.758v5.24C133.524,288.149,133.798,288.407,134.136,288.423z
		 M102.521,269.481c0-3.48,2.831-6.312,6.311-6.312s6.312,2.832,6.312,6.312s-2.832,6.312-6.312,6.312
		S102.521,272.961,102.521,269.481z M147.143,306.266h-41.675l0.004-29.342c0.525,0.238,1.076,0.426,1.652,0.549v15.521
		c0,0.702,0.571,1.273,1.272,1.273h18.751l1.782,2.681h-20.936v2.022h22.281c0.007,0.009,0.014,0.02,0.021,0.029l0.052,0.078
		c1.759,2.504,4.156,4.031,6.413,4.086l0.154,0.001c2.601,0,4.542-1.591,5.354-4.194h2.037v-2.022h-1.656
		c0.013-0.158,0.027-0.314,0.034-0.477c0.007-0.057,0.014-0.115,0.014-0.174v-2.03h1.854c0.702,0,1.273-0.571,1.273-1.273v-22.57
		c0-0.702-0.571-1.273-1.273-1.273h-27.563c-0.029-0.737-0.148-1.451-0.361-2.125h30.516V306.266z"/>
</g>
<path fill="#8F9FB1" d="M327.453,306.202c-0.132,0-0.265-0.026-0.391-0.079c-0.369-0.157-0.609-0.52-0.609-0.921v-5.25h-9.876
	c-0.553,0-1-0.448-1-1s0.447-1,1-1h10.876c0.553,0,1,0.448,1,1v3.891l9.145-8.849l-9.145-8.849v3.474c0,0.552-0.447,1-1,1h-15.501
	v5.417c0,0.401-0.24,0.764-0.609,0.92c-0.37,0.157-0.797,0.078-1.085-0.201l-12.083-11.667c-0.192-0.186-0.303-0.441-0.306-0.708
	c-0.003-0.268,0.102-0.525,0.29-0.715l12-12.083c0.287-0.289,0.719-0.375,1.091-0.22c0.375,0.154,0.619,0.519,0.619,0.924v6.333
	h11.167c0.553,0,1,0.448,1,1s-0.447,1-1,1h-12.167c-0.553,0-1-0.448-1-1v-4.907l-9.576,9.642l9.659,9.326v-4.061
	c0-0.552,0.447-1,1-1h15.501v-4.833c0-0.401,0.24-0.764,0.609-0.921c0.368-0.156,0.797-0.078,1.086,0.202l11.583,11.208
	c0.194,0.188,0.305,0.448,0.305,0.719s-0.11,0.53-0.305,0.719l-11.583,11.208C327.958,306.104,327.708,306.202,327.453,306.202z"/>
</svg>
