<?xml version="1.0" encoding="UTF-8"?>
<svg width="13px" height="25px" viewBox="0 0 13 25" version="1.1" xmlns="http://www.w3.org/2000/svg" xmlns:xlink="http://www.w3.org/1999/xlink">
    <!-- Generator: Sketch 42 (36781) - http://www.bohemiancoding.com/sketch -->
    <title>Fill 1</title>
    <desc>Created with Sketch.</desc>
    <defs></defs>
    <g id="CSAS" stroke="none" stroke-width="1" fill="none" fill-rule="evenodd">
        <g id="1-4-2-CSAS-kalkulacka---hypoteka-refinancovani" transform="translate(-1075.000000, -745.000000)" fill="#FFFFFF">
            <path d="M1084.24641,754.524066 C1084.44197,754.717267 1084.4398,755.032774 1084.24208,755.232468 L1078.22526,761.244415 C1078.02807,761.440863 1077.71117,761.441945 1077.51398,761.250368 L1072.20681,755.945741 C1072.01558,755.751999 1072.01667,755.436492 1072.21439,755.238962 L1078.2323,749.227557 C1078.4284,749.028403 1078.74693,749.028403 1078.94032,749.220521 L1084.24641,754.524066 Z M1084.30925,758.153748 C1084.14782,757.993018 1084.13969,757.73704 1084.29191,757.587134 L1085.37101,756.509107 C1085.52161,756.356495 1085.77838,756.364613 1085.93873,756.528049 L1086.55303,757.142827 C1086.71663,757.304639 1086.72313,757.556828 1086.57307,757.70944 L1085.49398,758.788549 C1085.34067,758.937373 1085.08932,758.931962 1084.92626,758.767443 L1084.30925,758.153748 Z M1088.63267,759.767541 L1087.55087,760.847191 C1087.4019,760.999262 1087.14729,760.988979 1086.98586,760.82825 L1086.36776,760.211848 C1086.2085,760.051118 1086.20037,759.795141 1086.35151,759.649564 L1087.43061,758.567208 C1087.58012,758.414054 1087.83418,758.425419 1087.99832,758.587231 L1088.61425,759.199845 C1088.77406,759.362739 1088.78435,759.616552 1088.63267,759.767541 L1088.63267,759.767541 Z M1090.67331,761.259027 C1090.83691,761.420839 1090.84449,761.675734 1090.69389,761.827264 L1089.61155,762.90475 C1089.46149,763.054656 1089.20743,763.050327 1089.04654,762.88635 L1088.43115,762.27103 C1088.27026,762.110842 1088.2616,761.855947 1088.41273,761.703876 L1089.49129,760.625308 C1089.64351,760.477025 1089.8992,760.481896 1090.059,760.645872 L1090.67331,761.259027 Z M1084.12615,759.565681 C1084.29191,759.729117 1084.29896,759.981847 1084.14511,760.133377 L1083.06656,761.210321 C1082.91325,761.36131 1082.66027,761.354816 1082.49884,761.194086 L1081.88454,760.579308 C1081.7204,760.415872 1081.7101,760.1626 1081.86395,760.011612 L1082.94413,758.931962 C1083.09635,758.778267 1083.3515,758.790173 1083.51239,758.94982 L1084.12615,759.565681 Z M1086.2085,762.191477 L1085.12778,763.271127 C1084.97556,763.420492 1084.72366,763.415622 1084.5606,763.251104 L1083.94468,762.635784 C1083.78162,762.472348 1083.77187,762.222324 1083.92572,762.069171 L1085.00481,760.990062 C1085.15757,760.839073 1085.41001,760.847191 1085.57144,761.009003 L1086.189,761.623781 C1086.35151,761.785593 1086.35801,762.040488 1086.2085,762.191477 L1086.2085,762.191477 Z M1088.26593,764.249577 L1087.18792,765.329227 C1087.03353,765.481298 1086.78434,765.469934 1086.6202,765.309204 L1086.00319,764.695508 C1085.84176,764.533155 1085.83363,764.280424 1085.98748,764.128895 L1087.0682,763.050327 C1087.21825,762.897173 1087.47124,762.907456 1087.63321,763.068727 L1088.25022,763.682964 C1088.41273,763.8464 1088.41924,764.098589 1088.26593,764.249577 L1088.26593,764.249577 Z M1079.45657,763.000538 C1079.2946,762.838726 1079.28593,762.585455 1079.43978,762.433384 L1080.51887,761.357522 C1080.66839,761.204909 1080.92408,761.210321 1081.08497,761.374839 L1081.70089,761.990159 C1081.86395,762.150348 1081.86991,762.404701 1081.7204,762.556231 L1080.6413,763.63534 C1080.48962,763.78687 1080.23664,763.779293 1080.07196,763.613152 L1079.45657,763.000538 Z M1083.76266,764.048259 C1083.92301,764.210071 1083.93113,764.463343 1083.78108,764.615414 L1082.70144,765.695064 C1082.5503,765.843347 1082.29515,765.83577 1082.13264,765.67504 L1081.51834,765.058638 C1081.35474,764.897909 1081.34824,764.643555 1081.49938,764.493649 L1082.58064,763.415622 C1082.73069,763.264633 1082.9853,763.271127 1083.14727,763.430234 L1083.76266,764.048259 Z M1085.82334,766.105818 C1085.98585,766.26763 1085.99344,766.522525 1085.84068,766.673514 L1084.76104,767.75154 C1084.60936,767.905235 1084.358,767.897659 1084.19549,767.73314 L1083.5801,767.11728 C1083.41813,766.956009 1083.41,766.704361 1083.55897,766.55229 L1084.64024,765.471016 C1084.79137,765.32111 1085.04652,765.331933 1085.20904,765.492122 L1085.82334,766.105818 Z M1076.84226,747.64407 L1076.58115,747.904376 L1076.0454,747.370775 C1075.54973,746.876138 1074.7442,746.876679 1074.24799,747.370775 C1073.7534,747.868117 1073.7534,748.669602 1074.24799,749.163698 L1074.78537,749.698381 L1070.58492,753.894135 C1069.80539,754.67289 1069.80485,755.943035 1070.58437,756.722332 L1083.28974,769.416745 C1084.07089,770.194418 1085.34067,770.194418 1086.12237,769.416745 L1092.45067,763.094703 C1093.22912,762.314866 1093.15815,761.11345 1092.37754,760.336319 L1079.6738,747.641364 C1078.89265,746.86315 1077.62179,746.86315 1076.84226,747.64407 L1076.84226,747.64407 Z" id="Fill-1" transform="translate(1081.500000, 758.500000) rotate(45.000000) translate(-1081.500000, -758.500000) "></path>
        </g>
    </g>
</svg>