<?xml version="1.0" standalone="no"?>
<!DOCTYPE svg PUBLIC "-//W3C//DTD SVG 20010904//EN"
 "http://www.w3.org/TR/2001/REC-SVG-20010904/DTD/svg10.dtd">
<svg version="1.0" xmlns="http://www.w3.org/2000/svg"
 width="16.000000pt" height="16.000000pt" viewBox="0 0 16.000000 16.000000"
 preserveAspectRatio="xMidYMid meet">
<metadata>
Created by potrace 1.11, written by Peter Selinger 2001-2013
</metadata>
<g transform="translate(0.000000,16.000000) scale(0.004571,-0.004571)"
fill="#000000" stroke="none">
<path d="M1650 3307 c-112 -32 -206 -107 -258 -205 -111 -208 -28 -459 187
-565 62 -30 72 -32 176 -32 105 0 113 2 177 34 162 81 259 263 229 432 -24
137 -103 244 -226 305 -62 31 -85 37 -157 40 -50 2 -101 -1 -128 -9z"/>
<path d="M730 2379 c-102 -20 -208 -97 -263 -190 -55 -94 -57 -117 -57 -686
l0 -523 1010 0 1010 0 0 -65 0 -65 -1010 0 -1010 0 0 -150 c0 -172 10 -232 52
-313 39 -73 102 -130 186 -170 l67 -32 1036 0 1035 0 76 37 c91 45 147 103
191 196 l32 67 3 532 3 533 -1011 0 -1010 0 0 75 0 75 1011 0 1011 0 -4 193
-3 192 -32 67 c-57 121 -163 203 -293 228 -66 12 -1965 12 -2030 -1z"/>
</g>
</svg>
